<svg width="40" height="40" viewBox="0 0 40 40" fill="none" xmlns="http://www.w3.org/2000/svg">
<rect width="40" height="40" rx="20" fill="#FEE7E1"/>
<path d="M20.0134 13.9399C17.8067 13.9399 16.0134 15.7333 16.0134 17.9399V19.8666C16.0134 20.2733 15.8401 20.8933 15.6334 21.2399L14.8667 22.5133C14.3934 23.2999 14.7201 24.1733 15.5867 24.4666C18.4601 25.4266 21.5601 25.4266 24.4334 24.4666C25.2401 24.1999 25.5934 23.2466 25.1534 22.5133L24.3867 21.2399C24.1867 20.8933 24.0134 20.2733 24.0134 19.8666V17.9399C24.0134 15.7399 22.2134 13.9399 20.0134 13.9399Z" stroke="#F19892" stroke-width="1.5" stroke-miterlimit="10" stroke-linecap="round"/>
<path d="M21.2467 14.1335C21.04 14.0735 20.8267 14.0268 20.6067 14.0001C19.9667 13.9201 19.3534 13.9668 18.78 14.1335C18.9734 13.6401 19.4534 13.2935 20.0134 13.2935C20.5734 13.2935 21.0534 13.6401 21.2467 14.1335Z" stroke="#F19892" stroke-width="1.5" stroke-miterlimit="10" stroke-linecap="round" stroke-linejoin="round"/>
<path d="M22.0134 24.7065C22.0134 25.8065 21.1134 26.7065 20.0134 26.7065C19.4668 26.7065 18.9601 26.4799 18.6001 26.1199C18.2401 25.7599 18.0134 25.2532 18.0134 24.7065" stroke="#F19892" stroke-width="1.5" stroke-miterlimit="10"/>
</svg>
