<svg width="52" height="15" viewBox="0 0 52 15" fill="none" xmlns="http://www.w3.org/2000/svg">
<rect width="52" height="15" rx="7.5" fill="#FEE7E1"/>
<path d="M12.7045 10.5V4.68182H14.7386C15.1439 4.68182 15.4782 4.75189 15.7415 4.89205C16.0047 5.0303 16.2008 5.21686 16.3295 5.4517C16.4583 5.68466 16.5227 5.94318 16.5227 6.22727C16.5227 6.47727 16.4782 6.68371 16.3892 6.84659C16.3021 7.00947 16.1866 7.13826 16.0426 7.23295C15.9006 7.32765 15.7462 7.39773 15.5795 7.44318V7.5C15.7576 7.51136 15.9366 7.57386 16.1165 7.6875C16.2964 7.80114 16.447 7.96402 16.5682 8.17614C16.6894 8.38826 16.75 8.64773 16.75 8.95455C16.75 9.24621 16.6837 9.50852 16.5511 9.74148C16.4186 9.97443 16.2093 10.1591 15.9233 10.2955C15.6373 10.4318 15.2652 10.5 14.8068 10.5H12.7045ZM13.4091 9.875H14.8068C15.267 9.875 15.5938 9.78598 15.7869 9.60795C15.982 9.42803 16.0795 9.21023 16.0795 8.95455C16.0795 8.75758 16.0294 8.57576 15.929 8.40909C15.8286 8.24053 15.6856 8.10606 15.5 8.00568C15.3144 7.90341 15.0947 7.85227 14.8409 7.85227H13.4091V9.875ZM13.4091 7.23864H14.7159C14.928 7.23864 15.1193 7.19697 15.2898 7.11364C15.4621 7.0303 15.5985 6.91288 15.6989 6.76136C15.8011 6.60985 15.8523 6.43182 15.8523 6.22727C15.8523 5.97159 15.7633 5.75473 15.5852 5.5767C15.4072 5.39678 15.125 5.30682 14.7386 5.30682H13.4091V7.23864ZM22.8168 7.59091C22.8168 8.20455 22.706 8.73485 22.4844 9.18182C22.2628 9.62879 21.9588 9.97348 21.5724 10.2159C21.1861 10.4583 20.7448 10.5795 20.2486 10.5795C19.7524 10.5795 19.3111 10.4583 18.9247 10.2159C18.5384 9.97348 18.2344 9.62879 18.0128 9.18182C17.7912 8.73485 17.6804 8.20455 17.6804 7.59091C17.6804 6.97727 17.7912 6.44697 18.0128 6C18.2344 5.55303 18.5384 5.20833 18.9247 4.96591C19.3111 4.72348 19.7524 4.60227 20.2486 4.60227C20.7448 4.60227 21.1861 4.72348 21.5724 4.96591C21.9588 5.20833 22.2628 5.55303 22.4844 6C22.706 6.44697 22.8168 6.97727 22.8168 7.59091ZM22.1349 7.59091C22.1349 7.08712 22.0507 6.66193 21.8821 6.31534C21.7154 5.96875 21.4891 5.70644 21.2031 5.52841C20.919 5.35038 20.6009 5.26136 20.2486 5.26136C19.8963 5.26136 19.5772 5.35038 19.2912 5.52841C19.0071 5.70644 18.7808 5.96875 18.6122 6.31534C18.4455 6.66193 18.3622 7.08712 18.3622 7.59091C18.3622 8.0947 18.4455 8.51989 18.6122 8.86648C18.7808 9.21307 19.0071 9.47538 19.2912 9.65341C19.5772 9.83144 19.8963 9.92045 20.2486 9.92045C20.6009 9.92045 20.919 9.83144 21.2031 9.65341C21.4891 9.47538 21.7154 9.21307 21.8821 8.86648C22.0507 8.51989 22.1349 8.0947 22.1349 7.59091ZM27.4219 10.5L25.4219 7.82955H24.706V10.5H24.0014V4.68182H24.706V7.20455H25.0128L27.3423 4.68182H28.1832L25.831 7.23864L28.2628 10.5H27.4219ZM29.4119 10.5H28.6733L30.8097 4.68182H31.5369L33.6733 10.5H32.9347L31.196 5.60227H31.1506L29.4119 10.5ZM29.6847 8.22727H32.6619V8.85227H29.6847V8.22727ZM34.0795 10.5V9.85227H34.25C34.4924 9.85227 34.6809 9.77462 34.8153 9.61932C34.9498 9.46402 35.0464 9.21307 35.1051 8.86648C35.1657 8.51989 35.2064 8.06061 35.2273 7.48864L35.3295 4.68182H38.875V10.5H38.1705V5.30682H36L35.9091 7.625C35.8864 8.23485 35.8305 8.75379 35.7415 9.18182C35.6525 9.60985 35.4962 9.93655 35.2727 10.1619C35.0492 10.3873 34.7235 10.5 34.2955 10.5H34.0795Z" fill="#F19892"/>
</svg>
