<svg width="81" height="15" viewBox="0 0 81 15" fill="none" xmlns="http://www.w3.org/2000/svg">
<rect width="81" height="15" rx="7.5" fill="#FEE7E1"/>
<path d="M14.7045 5.375H15.625C16.0568 5.375 16.4403 5.47159 16.7756 5.66477C17.1108 5.85795 17.3741 6.12689 17.5653 6.47159C17.7566 6.81629 17.8523 7.21591 17.8523 7.67045C17.8523 8.125 17.7566 8.52557 17.5653 8.87216C17.3741 9.21875 17.1108 9.48958 16.7756 9.68466C16.4403 9.87973 16.0568 9.97727 15.625 9.97727H14.7045C14.2727 9.97727 13.8892 9.88068 13.554 9.6875C13.2188 9.49432 12.9555 9.22538 12.7642 8.88068C12.5729 8.53598 12.4773 8.13636 12.4773 7.68182C12.4773 7.22727 12.5729 6.8267 12.7642 6.48011C12.9555 6.13352 13.2188 5.86269 13.554 5.66761C13.8892 5.47254 14.2727 5.375 14.7045 5.375ZM14.7045 6C14.375 6 14.0966 6.06913 13.8693 6.20739C13.6439 6.34564 13.4725 6.54072 13.3551 6.79261C13.2396 7.04451 13.1818 7.34091 13.1818 7.68182C13.1818 8.01894 13.2396 8.3125 13.3551 8.5625C13.4725 8.8125 13.6439 9.00663 13.8693 9.14489C14.0966 9.28314 14.375 9.35227 14.7045 9.35227H15.625C15.9545 9.35227 16.232 9.28314 16.4574 9.14489C16.6847 9.00663 16.8561 8.81155 16.9716 8.55966C17.089 8.30777 17.1477 8.01136 17.1477 7.67045C17.1477 7.33333 17.089 7.03977 16.9716 6.78977C16.8561 6.53977 16.6847 6.34564 16.4574 6.20739C16.232 6.06913 15.9545 6 15.625 6H14.7045ZM15.5227 4.57955V10.7386H14.8182V4.57955H15.5227ZM23.9418 7.59091C23.9418 8.20455 23.831 8.73485 23.6094 9.18182C23.3878 9.62879 23.0838 9.97348 22.6974 10.2159C22.3111 10.4583 21.8698 10.5795 21.3736 10.5795C20.8774 10.5795 20.4361 10.4583 20.0497 10.2159C19.6634 9.97348 19.3594 9.62879 19.1378 9.18182C18.9162 8.73485 18.8054 8.20455 18.8054 7.59091C18.8054 6.97727 18.9162 6.44697 19.1378 6C19.3594 5.55303 19.6634 5.20833 20.0497 4.96591C20.4361 4.72348 20.8774 4.60227 21.3736 4.60227C21.8698 4.60227 22.3111 4.72348 22.6974 4.96591C23.0838 5.20833 23.3878 5.55303 23.6094 6C23.831 6.44697 23.9418 6.97727 23.9418 7.59091ZM23.2599 7.59091C23.2599 7.08712 23.1757 6.66193 23.0071 6.31534C22.8404 5.96875 22.6141 5.70644 22.3281 5.52841C22.044 5.35038 21.7259 5.26136 21.3736 5.26136C21.0213 5.26136 20.7022 5.35038 20.4162 5.52841C20.1321 5.70644 19.9058 5.96875 19.7372 6.31534C19.5705 6.66193 19.4872 7.08712 19.4872 7.59091C19.4872 8.0947 19.5705 8.51989 19.7372 8.86648C19.9058 9.21307 20.1321 9.47538 20.4162 9.65341C20.7022 9.83144 21.0213 9.92045 21.3736 9.92045C21.7259 9.92045 22.044 9.83144 22.3281 9.65341C22.6141 9.47538 22.8404 9.21307 23.0071 8.86648C23.1757 8.51989 23.2599 8.0947 23.2599 7.59091ZM25.1264 10.5V4.68182H27.0923C27.5488 4.68182 27.9219 4.7642 28.2116 4.92898C28.5033 5.09186 28.7192 5.3125 28.8594 5.59091C28.9995 5.86932 29.0696 6.17992 29.0696 6.52273C29.0696 6.86553 28.9995 7.17708 28.8594 7.45739C28.7211 7.73769 28.5071 7.96117 28.2173 8.12784C27.9276 8.29261 27.5563 8.375 27.1037 8.375H25.6946V7.75H27.081C27.3935 7.75 27.6444 7.69602 27.8338 7.58807C28.0232 7.48011 28.1605 7.33428 28.2457 7.15057C28.3329 6.96496 28.3764 6.75568 28.3764 6.52273C28.3764 6.28977 28.3329 6.08144 28.2457 5.89773C28.1605 5.71402 28.0223 5.57008 27.831 5.46591C27.6397 5.35985 27.3859 5.30682 27.0696 5.30682H25.831V10.5H25.1264ZM29.8864 5.30682V4.68182H34.25V5.30682H32.4205V10.5H31.7159V5.30682H29.8864ZM35.3374 10.5V4.68182H38.8487V5.30682H36.0419V7.27273H38.6669V7.89773H36.0419V9.875H38.8942V10.5H35.3374ZM44.4709 4.68182V10.5H43.7663V5.30682H40.8345V10.5H40.13V4.68182H44.4709ZM45.892 4.68182H46.5852V9.26136H46.642L49.8239 4.68182H50.5057V10.5H49.8011V5.93182H49.7443L46.5739 10.5H45.892V4.68182ZM52.1541 10.5H51.4155L53.5518 4.68182H54.2791L56.4155 10.5H55.6768L53.9382 5.60227H53.8928L52.1541 10.5ZM52.4268 8.22727H55.4041V8.85227H52.4268V8.22727ZM57.3217 10.5V4.68182H58.0263V7.27273H61.1286V4.68182H61.8331V10.5H61.1286V7.89773H58.0263V10.5H57.3217ZM68.1527 7.59091C68.1527 8.20455 68.0419 8.73485 67.8203 9.18182C67.5987 9.62879 67.2947 9.97348 66.9084 10.2159C66.522 10.4583 66.0807 10.5795 65.5845 10.5795C65.0883 10.5795 64.647 10.4583 64.2607 10.2159C63.8743 9.97348 63.5703 9.62879 63.3487 9.18182C63.1271 8.73485 63.0163 8.20455 63.0163 7.59091C63.0163 6.97727 63.1271 6.44697 63.3487 6C63.5703 5.55303 63.8743 5.20833 64.2607 4.96591C64.647 4.72348 65.0883 4.60227 65.5845 4.60227C66.0807 4.60227 66.522 4.72348 66.9084 4.96591C67.2947 5.20833 67.5987 5.55303 67.8203 6C68.0419 6.44697 68.1527 6.97727 68.1527 7.59091ZM67.4709 7.59091C67.4709 7.08712 67.3866 6.66193 67.218 6.31534C67.0514 5.96875 66.825 5.70644 66.5391 5.52841C66.255 5.35038 65.9368 5.26136 65.5845 5.26136C65.2322 5.26136 64.9131 5.35038 64.6271 5.52841C64.343 5.70644 64.1167 5.96875 63.9482 6.31534C63.7815 6.66193 63.6982 7.08712 63.6982 7.59091C63.6982 8.0947 63.7815 8.51989 63.9482 8.86648C64.1167 9.21307 64.343 9.47538 64.6271 9.65341C64.9131 9.83144 65.2322 9.92045 65.5845 9.92045C65.9368 9.92045 66.255 9.83144 66.5391 9.65341C66.825 9.47538 67.0514 9.21307 67.218 8.86648C67.3866 8.51989 67.4709 8.0947 67.4709 7.59091Z" fill="#F19892"/>
</svg>
