<svg width="20" height="16" viewBox="0 0 20 16" fill="none" xmlns="http://www.w3.org/2000/svg">
<path d="M16.4971 1.3335H3.29938C2.38826 1.3335 1.64966 1.93045 1.64966 2.66683V5.3335C1.64966 6.06988 2.38826 6.66683 3.29938 6.66683H16.4971C17.4082 6.66683 18.1468 6.06988 18.1468 5.3335V2.66683C18.1468 1.93045 17.4082 1.3335 16.4971 1.3335Z" stroke="black" stroke-linecap="round" stroke-linejoin="round"/>
<path d="M16.4971 9.3335H3.29938C2.38826 9.3335 1.64966 9.93045 1.64966 10.6668V13.3335C1.64966 14.0699 2.38826 14.6668 3.29938 14.6668H16.4971C17.4082 14.6668 18.1468 14.0699 18.1468 13.3335V10.6668C18.1468 9.93045 17.4082 9.3335 16.4971 9.3335Z" stroke="black" stroke-linecap="round" stroke-linejoin="round"/>
<path d="M4.94922 4H4.95747" stroke="black" stroke-linecap="round" stroke-linejoin="round"/>
<path d="M4.94922 12H4.95747" stroke="black" stroke-linecap="round" stroke-linejoin="round"/>
</svg>
