<svg width="465" height="479" viewBox="0 0 465 479" fill="none" xmlns="http://www.w3.org/2000/svg">
<g clip-path="url(#clip0_1_20)">
<rect width="465" height="479" rx="3" fill="white"/>
<path d="M-9.74674 152.127C-12.7163 122.06 -21.0722 85.9119 -0.879219 59.6809C11.0127 44.233 26.0672 36.0332 45.293 37.6649C68.1309 39.6032 89.0725 42.54 105.225 22.3761C115.263 9.84541 123.266 -7.62811 123.266 -24" stroke="#BBBC86" stroke-width="2" stroke-linecap="round"/>
<path d="M278 -24C285.419 -4.16105 292.106 20.0867 309.291 33.8937C314.192 37.8314 319.966 39.0547 326.211 38.3784C342.805 36.5813 358.105 27.9742 374.065 23.6502C407.615 14.5602 442.123 24.9777 459.173 56.6231C468.85 74.5845 473.312 95.1135 478.335 114.721C479.664 119.91 481.647 125.557 481.647 131.029" stroke="#F19892" stroke-width="2" stroke-linecap="round"/>
<path d="M513.746 283.552C492.786 285.466 469.332 284.976 452.253 299.161C418.804 326.941 424.831 374.022 416.226 412.089C412.621 428.035 407.507 449.228 394.623 460.588C380.096 473.397 358.345 470.195 341.857 463.64C328.29 458.246 315.605 449.378 307.131 437.384C306.567 436.587 303.635 432.355 304.488 431.83" stroke="#805835" stroke-width="2" stroke-linecap="round"/>
</g>
<defs>
<clipPath id="clip0_1_20">
<rect width="465" height="479" rx="3" fill="white"/>
</clipPath>
</defs>
</svg>
