<svg width="47" height="40" viewBox="0 0 47 40" fill="none" xmlns="http://www.w3.org/2000/svg">
<path d="M46.666 27.1529C46.666 34.0726 41.0564 39.6821 34.1367 39.6821L15.3428 39.6821C13.4207 39.6821 11.8625 38.1239 11.8625 36.2018L11.8625 12.5354C11.8625 8.69113 14.9789 5.57472 18.8232 5.57472L43.1856 5.57473C45.1078 5.57473 46.666 7.13293 46.666 9.05507L46.666 27.1529Z" fill="#9D9E52" fill-opacity="0.7"/>
<mask id="path-2-inside-1_211_2125" fill="white">
<path d="M21.4148 16.6463C21.1674 16.6463 20.9376 16.5771 20.7335 16.4659V16.4688C20.7335 16.8646 20.5822 17.2363 20.3076 17.5146C20.033 17.7937 19.6677 17.9476 19.2788 17.9476C19.0277 17.9476 18.7951 17.8767 18.5888 17.7625C18.5679 18.1245 18.4256 18.4629 18.1716 18.7214C17.897 19.0005 17.5317 19.1543 17.1425 19.1543C16.3694 19.1543 15.7416 18.5365 15.6964 17.7622C15.4571 17.8937 15.1867 17.9626 14.9078 17.9444C14.1472 17.8937 13.5516 17.2257 13.5516 16.4233V9.77232L12.8066 11.0844C12.5228 11.5862 11.9917 11.8978 11.4197 11.8978C11.1411 11.8978 10.8658 11.8235 10.622 11.6814C10.3183 11.5025 10.1012 11.2153 10.0108 10.8717C9.92006 10.5279 9.96703 10.1683 10.1426 9.86011C10.1428 9.86011 12.5802 5.56948 12.7289 5.30592C12.7466 5.2663 12.797 5.15136 12.8398 5.05341C12.8807 4.95988 12.9158 4.86389 12.9495 4.76741C13.6845 2.65795 15.5046 1.3476 17.6997 1.3476C20.5501 1.3476 22.8691 3.90378 22.8691 7.0458L22.8694 15.1674C22.8694 15.5626 22.7183 15.934 22.444 16.2134C22.1694 16.4925 21.8041 16.6463 21.4148 16.6463L21.4148 16.6463ZM17.6997 2.13333C15.8135 2.13333 14.3102 3.21629 13.6781 5.03019C13.6376 5.14537 13.5955 5.26056 13.5463 5.37279C13.4037 5.69792 13.4037 5.69792 13.3635 5.74467L13.3582 5.74C13.1592 6.12173 12.5679 7.16256 10.8118 10.2534C10.7397 10.3801 10.7206 10.5273 10.7574 10.6681C10.7947 10.8088 10.884 10.9275 11.0077 11.0001C11.3917 11.2243 11.9176 11.0796 12.1365 10.6919L13.6035 8.11011C13.6911 7.95629 13.8684 7.88073 14.0383 7.9275C14.2073 7.97352 14.3248 8.12931 14.3248 8.30701V16.4235C14.3248 16.8065 14.609 17.137 14.9584 17.1604C15.1599 17.1712 15.3477 17.1026 15.4889 16.9593C15.6172 16.8289 15.6879 16.6551 15.6879 16.4693V11.161C15.6879 10.9439 15.861 10.7679 16.0746 10.7679C16.2881 10.7679 16.4613 10.9437 16.4613 11.161L16.461 17.6759C16.461 18.0579 16.7668 18.3687 17.1426 18.3687C17.3251 18.3687 17.4966 18.2968 17.6251 18.1664C17.7534 18.0357 17.8241 17.8615 17.8241 17.6759V11.161C17.8241 10.9439 17.997 10.7679 18.2108 10.7679C18.4244 10.7679 18.5975 10.9437 18.5975 11.161L18.5972 16.4082V16.4693C18.5972 16.851 18.903 17.1618 19.279 17.1618C19.4614 17.1618 19.6323 17.0897 19.7616 16.9588C19.8899 16.8286 19.9606 16.6548 19.9606 16.469V11.1607C19.9606 10.9436 20.1335 10.7676 20.3473 10.7676C20.5608 10.7676 20.7339 10.9434 20.7339 11.1607L20.7335 15.1675C20.7335 15.5498 21.0393 15.8606 21.4148 15.8606C21.5976 15.8606 21.7685 15.7885 21.8968 15.6583C22.0256 15.5274 22.0961 15.3531 22.0961 15.1675L22.0963 7.04598C22.0963 4.33745 20.1241 2.13341 17.6997 2.13341L17.6997 2.13333Z"/>
</mask>
<path d="M21.4148 16.6463C21.1674 16.6463 20.9376 16.5771 20.7335 16.4659V16.4688C20.7335 16.8646 20.5822 17.2363 20.3076 17.5146C20.033 17.7937 19.6677 17.9476 19.2788 17.9476C19.0277 17.9476 18.7951 17.8767 18.5888 17.7625C18.5679 18.1245 18.4256 18.4629 18.1716 18.7214C17.897 19.0005 17.5317 19.1543 17.1425 19.1543C16.3694 19.1543 15.7416 18.5365 15.6964 17.7622C15.4571 17.8937 15.1867 17.9626 14.9078 17.9444C14.1472 17.8937 13.5516 17.2257 13.5516 16.4233V9.77232L12.8066 11.0844C12.5228 11.5862 11.9917 11.8978 11.4197 11.8978C11.1411 11.8978 10.8658 11.8235 10.622 11.6814C10.3183 11.5025 10.1012 11.2153 10.0108 10.8717C9.92006 10.5279 9.96703 10.1683 10.1426 9.86011C10.1428 9.86011 12.5802 5.56948 12.7289 5.30592C12.7466 5.2663 12.797 5.15136 12.8398 5.05341C12.8807 4.95988 12.9158 4.86389 12.9495 4.76741C13.6845 2.65795 15.5046 1.3476 17.6997 1.3476C20.5501 1.3476 22.8691 3.90378 22.8691 7.0458L22.8694 15.1674C22.8694 15.5626 22.7183 15.934 22.444 16.2134C22.1694 16.4925 21.8041 16.6463 21.4148 16.6463L21.4148 16.6463ZM17.6997 2.13333C15.8135 2.13333 14.3102 3.21629 13.6781 5.03019C13.6376 5.14537 13.5955 5.26056 13.5463 5.37279C13.4037 5.69792 13.4037 5.69792 13.3635 5.74467L13.3582 5.74C13.1592 6.12173 12.5679 7.16256 10.8118 10.2534C10.7397 10.3801 10.7206 10.5273 10.7574 10.6681C10.7947 10.8088 10.884 10.9275 11.0077 11.0001C11.3917 11.2243 11.9176 11.0796 12.1365 10.6919L13.6035 8.11011C13.6911 7.95629 13.8684 7.88073 14.0383 7.9275C14.2073 7.97352 14.3248 8.12931 14.3248 8.30701V16.4235C14.3248 16.8065 14.609 17.137 14.9584 17.1604C15.1599 17.1712 15.3477 17.1026 15.4889 16.9593C15.6172 16.8289 15.6879 16.6551 15.6879 16.4693V11.161C15.6879 10.9439 15.861 10.7679 16.0746 10.7679C16.2881 10.7679 16.4613 10.9437 16.4613 11.161L16.461 17.6759C16.461 18.0579 16.7668 18.3687 17.1426 18.3687C17.3251 18.3687 17.4966 18.2968 17.6251 18.1664C17.7534 18.0357 17.8241 17.8615 17.8241 17.6759V11.161C17.8241 10.9439 17.997 10.7679 18.2108 10.7679C18.4244 10.7679 18.5975 10.9437 18.5975 11.161L18.5972 16.4082V16.4693C18.5972 16.851 18.903 17.1618 19.279 17.1618C19.4614 17.1618 19.6323 17.0897 19.7616 16.9588C19.8899 16.8286 19.9606 16.6548 19.9606 16.469V11.1607C19.9606 10.9436 20.1335 10.7676 20.3473 10.7676C20.5608 10.7676 20.7339 10.9434 20.7339 11.1607L20.7335 15.1675C20.7335 15.5498 21.0393 15.8606 21.4148 15.8606C21.5976 15.8606 21.7685 15.7885 21.8968 15.6583C22.0256 15.5274 22.0961 15.3531 22.0961 15.1675L22.0963 7.04598C22.0963 4.33745 20.1241 2.13341 17.6997 2.13341L17.6997 2.13333Z" fill="#263238"/>
<path d="M21.4148 16.6463V14.6463H28.3832L22.4755 18.3419L21.4148 16.6463ZM20.7335 16.4659H18.7335V13.098L21.6907 14.7098L20.7335 16.4659ZM20.3076 17.5146L18.8818 16.112L18.8837 16.1102L20.3076 17.5146ZM18.5888 17.7625L16.5921 17.6476L16.7747 14.4723L19.5574 16.0127L18.5888 17.7625ZM18.1716 18.7214L19.5981 20.1232L19.5973 20.124L18.1716 18.7214ZM15.6964 17.7622L14.7333 16.0094L17.5083 14.4848L17.693 17.6456L15.6964 17.7622ZM14.9078 17.9444L14.7774 19.9401L14.7747 19.9399L14.9078 17.9444ZM13.5516 9.77232L11.8125 8.78475L15.5516 2.19981V9.77232H13.5516ZM12.8066 11.0844L11.0657 10.0999L11.0674 10.0968L12.8066 11.0844ZM10.622 11.6814L9.61532 13.4097L9.60654 13.4045L10.622 11.6814ZM10.0108 10.8717L11.9446 10.3611L11.9452 10.3633L10.0108 10.8717ZM10.1426 9.86011L8.40472 8.87021L8.98009 7.86011H10.1426V9.86011ZM12.7289 5.30592L14.5554 6.12065L14.5171 6.20666L14.4708 6.28868L12.7289 5.30592ZM12.8398 5.05341L11.0075 4.25179L11.0075 4.25176L12.8398 5.05341ZM12.9495 4.76741L14.8381 5.42551L14.8379 5.42605L12.9495 4.76741ZM22.8691 7.0458L20.8691 7.04586V7.0458H22.8691ZM22.8694 15.1674L24.8694 15.1673V15.1674H22.8694ZM22.444 16.2134L23.871 17.6147L23.8697 17.616L22.444 16.2134ZM21.4148 16.6463V18.6463H14.4464L20.3541 14.9508L21.4148 16.6463ZM17.6997 2.13333V0.133329H20.3393L19.6251 2.6745L17.6997 2.13333ZM13.6781 5.03019L15.5667 5.68838L15.5652 5.69264L13.6781 5.03019ZM13.5463 5.37279L15.3784 6.17511L15.3779 6.17616L13.5463 5.37279ZM13.3635 5.74467L14.8803 7.04835L13.5629 8.58103L12.0441 7.24766L13.3635 5.74467ZM13.3582 5.74L11.5848 4.81539L12.7628 2.5559L14.6777 4.23701L13.3582 5.74ZM10.8118 10.2534L12.5508 11.2414L12.55 11.2428L10.8118 10.2534ZM10.7574 10.6681L8.82402 11.1801L8.8224 11.1739L10.7574 10.6681ZM11.0077 11.0001L9.99926 12.7272L9.9955 12.725L11.0077 11.0001ZM12.1365 10.6919L10.3949 9.70863L10.3976 9.70389L12.1365 10.6919ZM13.6035 8.11011L11.8646 7.12206L11.8658 7.11997L13.6035 8.11011ZM14.0383 7.9275L13.5128 9.85722L13.5078 9.85584L14.0383 7.9275ZM14.9584 17.1604L14.8511 19.1575L14.838 19.1568L14.8249 19.1559L14.9584 17.1604ZM15.4889 16.9593L16.9147 18.3619L16.9134 18.3631L15.4889 16.9593ZM16.4613 11.161H18.4613V11.1611L16.4613 11.161ZM16.461 17.6759H14.461V17.6758L16.461 17.6759ZM17.6251 18.1664L19.0522 19.5676L19.0495 19.5703L17.6251 18.1664ZM18.5975 11.161H20.5975V11.1611L18.5975 11.161ZM18.5972 16.4082H16.5972V16.4081L18.5972 16.4082ZM19.7616 16.9588L21.186 18.3627L21.1847 18.364L19.7616 16.9588ZM20.7339 11.1607H22.7339V11.1609L20.7339 11.1607ZM20.7335 15.1675H18.7335V15.1673L20.7335 15.1675ZM21.8968 15.6583L23.3226 17.0609L23.3213 17.0622L21.8968 15.6583ZM22.0961 15.1675H20.0961V15.1675L22.0961 15.1675ZM22.0963 7.04598H24.0963V7.04604L22.0963 7.04598ZM17.6997 2.13341V4.13341H15.06L15.7743 1.59224L17.6997 2.13341ZM21.4148 16.6463V18.6463C20.7855 18.6463 20.2294 18.4689 19.7763 18.222L20.7335 16.4659L21.6907 14.7098C21.6457 14.6853 21.5492 14.6463 21.4148 14.6463V16.6463ZM20.7335 16.4659H22.7335V16.4688H20.7335H18.7335V16.4659H20.7335ZM20.7335 16.4688H22.7335C22.7335 17.3829 22.3803 18.2613 21.7315 18.9191L20.3076 17.5146L18.8837 16.1102C18.784 16.2113 18.7335 16.3463 18.7335 16.4688H20.7335ZM20.3076 17.5146L21.7334 18.9172C21.086 19.5752 20.2083 19.9476 19.2788 19.9476V17.9476V15.9476C19.127 15.9476 18.9801 16.0122 18.8818 16.112L20.3076 17.5146ZM19.2788 17.9476V19.9476C18.6415 19.9476 18.0785 19.766 17.6201 19.5123L18.5888 17.7625L19.5574 16.0127C19.5116 15.9873 19.4139 15.9476 19.2788 15.9476V17.9476ZM18.5888 17.7625L20.5855 17.8773C20.5384 18.6949 20.2112 19.4992 19.5981 20.1232L18.1716 18.7214L16.7451 17.3195C16.6399 17.4266 16.5974 17.5542 16.5921 17.6476L18.5888 17.7625ZM18.1716 18.7214L19.5973 20.124C18.9499 20.7821 18.0721 21.1543 17.1425 21.1543V19.1543V17.1543C16.9912 17.1543 16.8442 17.2188 16.7458 17.3188L18.1716 18.7214ZM17.1425 19.1543V21.1543C15.2612 21.1543 13.8039 19.661 13.6998 17.8789L15.6964 17.7622L17.693 17.6456C17.6793 17.4121 17.4777 17.1543 17.1425 17.1543V19.1543ZM15.6964 17.7622L16.6594 19.5151C16.1216 19.8106 15.4748 19.9856 14.7774 19.9401L14.9078 17.9444L15.0381 15.9486C14.8986 15.9395 14.7927 15.9767 14.7333 16.0094L15.6964 17.7622ZM14.9078 17.9444L14.7747 19.9399C12.8774 19.8134 11.5516 18.19 11.5516 16.4233H13.5516H15.5516C15.5516 16.2614 15.417 15.9739 15.0408 15.9488L14.9078 17.9444ZM13.5516 16.4233H11.5516V9.77232H13.5516H15.5516V16.4233H13.5516ZM13.5516 9.77232L15.2908 10.7599L14.5458 12.0719L12.8066 11.0844L11.0674 10.0968L11.8125 8.78475L13.5516 9.77232ZM12.8066 11.0844L14.5476 12.0688C13.9126 13.1918 12.7199 13.8978 11.4197 13.8978V11.8978V9.89779C11.2634 9.89779 11.1331 9.98061 11.0657 10.0999L12.8066 11.0844ZM11.4197 11.8978V13.8978C10.7851 13.8978 10.1628 13.7285 9.61534 13.4097L10.622 11.6814L11.6286 9.95324C11.5687 9.91838 11.497 9.89779 11.4197 9.89779V11.8978ZM10.622 11.6814L9.60654 13.4045C8.84616 12.9564 8.3003 12.2314 8.07655 11.3801L10.0108 10.8717L11.9452 10.3633C11.902 10.1992 11.7905 10.0486 11.6374 9.9584L10.622 11.6814ZM10.0108 10.8717L8.07713 11.3823C7.85275 10.5326 7.96957 9.63414 8.40472 8.87021L10.1426 9.86011L11.8804 10.85C11.9645 10.7024 11.9874 10.5231 11.9446 10.3611L10.0108 10.8717ZM10.1426 9.86011V7.86011C9.15519 8.12083 8.41979 8.84421 8.4144 8.8534C8.41261 8.85649 8.40993 8.86112 8.40907 8.86262C8.40774 8.86493 8.40675 8.86666 8.4067 8.86675C8.4063 8.86746 8.40619 8.86764 8.40668 8.86679C8.4075 8.86534 8.40898 8.86274 8.41124 8.85877C8.41569 8.85095 8.42241 8.83913 8.43133 8.82343C8.44915 8.7921 8.47534 8.74601 8.50881 8.68712C8.57572 8.56937 8.6715 8.4008 8.78691 8.19764C9.01774 7.79134 9.32706 7.24683 9.64101 6.69409C10.2704 5.58593 10.9145 4.45163 10.987 4.32316L12.7289 5.30592L14.4708 6.28868C14.3946 6.42378 13.7456 7.56657 13.1191 8.66962C12.8051 9.22247 12.4957 9.7671 12.2648 10.1735C12.1494 10.3767 12.0535 10.5454 11.9865 10.6634C11.953 10.7223 11.9267 10.7686 11.9087 10.8003C11.8997 10.8161 11.8927 10.8284 11.8879 10.8368C11.8856 10.841 11.8835 10.8445 11.882 10.8472C11.8813 10.8484 11.8803 10.8502 11.8793 10.8519C11.879 10.8525 11.8778 10.8546 11.8763 10.8572C11.8753 10.8588 11.8726 10.8636 11.8708 10.8667C11.8654 10.876 11.1299 11.5994 10.1426 11.8601V9.86011ZM12.7289 5.30592L10.9024 4.4912C10.9164 4.45985 10.9631 4.35333 11.0075 4.25179L12.8398 5.05341L14.6721 5.85503C14.6308 5.9494 14.5768 6.07275 14.5554 6.12065L12.7289 5.30592ZM12.8398 5.05341L11.0075 4.25176C11.0173 4.22939 11.0324 4.1908 11.0611 4.10878L12.9495 4.76741L14.8379 5.42605C14.7992 5.53699 14.7442 5.69037 14.6721 5.85505L12.8398 5.05341ZM12.9495 4.76741L11.0609 4.10931C12.0692 1.21567 14.6334 -0.652405 17.6997 -0.652405V1.3476V3.3476C16.3758 3.3476 15.2999 4.10022 14.8381 5.42551L12.9495 4.76741ZM17.6997 1.3476V-0.652405C21.8335 -0.652405 24.8691 2.98692 24.8691 7.0458H22.8691H20.8691C20.8691 4.82064 19.2668 3.3476 17.6997 3.3476V1.3476ZM22.8691 7.0458L24.8691 7.04574L24.8694 15.1673L22.8694 15.1674L20.8694 15.1674L20.8691 7.04586L22.8691 7.0458ZM22.8694 15.1674H24.8694C24.8694 16.0814 24.5163 16.9575 23.871 17.6147L22.444 16.2134L21.0169 14.8121C20.9203 14.9106 20.8694 15.0439 20.8694 15.1674H22.8694ZM22.444 16.2134L23.8697 17.616C23.2222 18.2742 22.3444 18.6463 21.4148 18.6463V16.6463V14.6463C21.2637 14.6463 21.1167 14.7108 21.0182 14.8108L22.444 16.2134ZM21.4148 16.6463L20.3541 14.9508L20.3541 14.9507L21.4148 16.6463L22.4755 18.3419L22.4754 18.3419L21.4148 16.6463ZM17.6997 2.13333V4.13333C16.6856 4.13333 15.9258 4.65772 15.5667 5.68838L13.6781 5.03019L11.7895 4.372C12.6946 1.77486 14.9415 0.133329 17.6997 0.133329V2.13333ZM13.6781 5.03019L15.5652 5.69264C15.5207 5.81919 15.4586 5.99186 15.3784 6.17511L13.5463 5.37279L11.7143 4.57047C11.7324 4.52925 11.7545 4.47155 11.791 4.36774L13.6781 5.03019ZM13.5463 5.37279L15.3779 6.17616C15.3188 6.31092 15.259 6.44853 15.2114 6.5454C15.1807 6.60783 15.1265 6.71353 15.0459 6.83275C14.964 6.95387 14.8828 7.04537 14.8803 7.04835L13.3635 5.74467L11.8468 4.441C11.8644 4.4206 11.7983 4.49456 11.7322 4.59237C11.6673 4.68828 11.6295 4.76489 11.6217 4.78083C11.617 4.7903 11.6156 4.79352 11.619 4.78617C11.6222 4.77927 11.6275 4.76744 11.6362 4.74798C11.6541 4.7078 11.6782 4.65289 11.7148 4.56942L13.5463 5.37279ZM13.3635 5.74467L12.0441 7.24766L12.0387 7.24298L13.3582 5.74L14.6777 4.23701L14.683 4.24168L13.3635 5.74467ZM13.3582 5.74L15.1317 6.6646C14.9106 7.08862 14.2894 8.18137 12.5508 11.2414L10.8118 10.2534L9.07292 9.26535C10.8465 6.14375 11.4078 5.15484 11.5848 4.81539L13.3582 5.74ZM10.8118 10.2534L12.55 11.2428C12.737 10.9143 12.7871 10.5247 12.6923 10.1622L10.7574 10.6681L8.8224 11.1739C8.65403 10.5299 8.74243 9.84592 9.07374 9.26392L10.8118 10.2534ZM10.7574 10.6681L12.6907 10.156C12.5956 9.79687 12.3601 9.47474 12.0199 9.27514L11.0077 11.0001L9.9955 12.725C9.40792 12.3802 8.99372 11.8208 8.82403 11.1801L10.7574 10.6681ZM11.0077 11.0001L12.0162 9.27294C11.6962 9.08613 11.3618 9.0764 11.1061 9.1464C10.8507 9.21628 10.5732 9.3928 10.3949 9.70864L12.1365 10.6919L13.8781 11.6752C13.1162 13.0247 11.3567 13.5198 9.99926 12.7272L11.0077 11.0001ZM12.1365 10.6919L10.3976 9.70389L11.8646 7.12206L13.6035 8.11011L15.3424 9.09817L13.8754 11.68L12.1365 10.6919ZM13.6035 8.11011L11.8658 7.11997C12.3944 6.19219 13.4947 5.7036 14.5689 5.99915L14.0383 7.9275L13.5078 9.85584C14.2421 10.0579 14.9878 9.72039 15.3412 9.10026L13.6035 8.11011ZM14.0383 7.9275L14.5639 5.99777C15.6231 6.28623 16.3248 7.24777 16.3248 8.30701H14.3248H12.3248C12.3248 9.01085 12.7916 9.6608 13.5128 9.85722L14.0383 7.9275ZM14.3248 8.30701H16.3248V16.4235H14.3248H12.3248V8.30701H14.3248ZM14.3248 16.4235H16.3248C16.3248 16.1217 16.2145 15.8408 16.027 15.6228C15.8399 15.4052 15.5212 15.1936 15.0919 15.1649L14.9584 17.1604L14.8249 19.1559C13.2764 19.0523 12.3248 17.7034 12.3248 16.4235H14.3248ZM14.9584 17.1604L15.0658 15.1633C14.7256 15.145 14.3462 15.2695 14.0644 15.5555L15.4889 16.9593L16.9134 18.3631C16.3493 18.9356 15.5941 19.1975 14.8511 19.1575L14.9584 17.1604ZM15.4889 16.9593L14.0632 15.5567C13.8181 15.8058 13.6879 16.138 13.6879 16.4693H15.6879H17.6879C17.6879 17.1722 17.4163 17.852 16.9147 18.3619L15.4889 16.9593ZM15.6879 16.4693H13.6879V11.161H15.6879H17.6879V16.4693H15.6879ZM15.6879 11.161H13.6879C13.6879 9.87036 14.7257 8.76793 16.0746 8.76793V10.7679V12.7679C16.9964 12.7679 17.6879 12.0175 17.6879 11.161H15.6879ZM16.0746 10.7679V8.76793C17.4227 8.76793 18.4613 9.8693 18.4613 11.161H16.4613H14.4613C14.4613 12.018 15.1536 12.7679 16.0746 12.7679V10.7679ZM16.4613 11.161L18.4613 11.1611L18.461 17.676L16.461 17.6759L14.461 17.6758L14.4613 11.1609L16.4613 11.161ZM16.461 17.6759H18.461C18.461 16.9843 17.9021 16.3687 17.1426 16.3687V18.3687V20.3687C15.6315 20.3687 14.461 19.1314 14.461 17.6759H16.461ZM17.1426 18.3687V16.3687C16.7877 16.3687 16.4467 16.5129 16.2007 16.7624L17.6251 18.1664L19.0495 19.5703C18.5465 20.0807 17.8625 20.3687 17.1426 20.3687V18.3687ZM17.6251 18.1664L16.1981 16.7652C15.9538 17.014 15.8241 17.3451 15.8241 17.6759H17.8241H19.8241C19.8241 18.3778 19.5531 19.0575 19.0522 19.5676L17.6251 18.1664ZM17.8241 17.6759H15.8241V11.161H17.8241H19.8241V17.6759H17.8241ZM17.8241 11.161H15.8241C15.8241 9.87119 16.8609 8.76792 18.2108 8.76792V10.7679V12.7679C19.1332 12.7679 19.8241 12.0166 19.8241 11.161H17.8241ZM18.2108 10.7679V8.76792C19.5589 8.76792 20.5975 9.86928 20.5975 11.161H18.5975H16.5975C16.5975 12.018 17.2898 12.7679 18.2108 12.7679V10.7679ZM18.5975 11.161L20.5975 11.1611L20.5972 16.4083L18.5972 16.4082L16.5972 16.4081L16.5975 11.1609L18.5975 11.161ZM18.5972 16.4082H20.5972V16.4693H18.5972H16.5972V16.4082H18.5972ZM18.5972 16.4693H20.5972C20.5972 15.7765 20.0374 15.1618 19.279 15.1618V17.1618V19.1618C17.7687 19.1618 16.5972 17.9255 16.5972 16.4693H18.5972ZM19.279 17.1618V15.1618C18.9188 15.1618 18.5795 15.3095 18.3385 15.5535L19.7616 16.9588L21.1847 18.364C20.6851 18.87 20.0039 19.1618 19.279 19.1618V17.1618ZM19.7616 16.9588L18.3372 15.5549C18.0906 15.805 17.9606 16.1381 17.9606 16.469H19.9606H21.9606C21.9606 17.1716 21.6892 17.8522 21.186 18.3627L19.7616 16.9588ZM19.9606 16.469H17.9606V11.1607H19.9606H21.9606V16.469H19.9606ZM19.9606 11.1607H17.9606C17.9606 9.87088 18.9974 8.76765 20.3473 8.76765V10.7676V12.7676C21.2696 12.7676 21.9606 12.0164 21.9606 11.1607H19.9606ZM20.3473 10.7676V8.76765C21.6954 8.76765 22.7339 9.86901 22.7339 11.1607H20.7339H18.7339C18.7339 12.0177 19.4263 12.7676 20.3473 12.7676V10.7676ZM20.7339 11.1607L22.7339 11.1609L22.7335 15.1678L20.7335 15.1675L18.7335 15.1673L18.7339 11.1605L20.7339 11.1607ZM20.7335 15.1675H22.7335C22.7335 14.4772 22.1755 13.8606 21.4148 13.8606V15.8606V17.8606C19.903 17.8606 18.7335 16.6224 18.7335 15.1675H20.7335ZM21.4148 15.8606V13.8606C21.0578 13.8606 20.7169 14.0063 20.4724 14.2544L21.8968 15.6583L23.3213 17.0622C22.8201 17.5707 22.1374 17.8606 21.4148 17.8606V15.8606ZM21.8968 15.6583L20.4711 14.2557C20.2252 14.5056 20.0961 14.8379 20.0961 15.1675H22.0961H24.0961C24.0961 15.8683 23.8261 16.5491 23.3226 17.0609L21.8968 15.6583ZM22.0961 15.1675L20.0961 15.1675L20.0963 7.04592L22.0963 7.04598L24.0963 7.04604L24.0961 15.1676L22.0961 15.1675ZM22.0963 7.04598H20.0963C20.0963 5.22748 18.8165 4.13341 17.6997 4.13341V2.13341V0.13341C21.4316 0.13341 24.0963 3.44742 24.0963 7.04598H22.0963ZM17.6997 2.13341L15.7743 1.59224L15.7743 1.59216L17.6997 2.13333L19.6251 2.6745L19.6251 2.67458L17.6997 2.13341Z" fill="black" mask="url(#path-2-inside-1_211_2125)"/>
<mask id="path-4-inside-2_211_2125" fill="white">
<path d="M6.22302 22.2915L11.8339 18.87C12.5104 18.457 13.3808 18.6324 13.8147 19.2697C13.973 19.5017 14.0539 19.7722 14.0665 20.0477C14.2757 19.9367 14.5033 19.8764 14.735 19.8764C14.8536 19.8764 14.9727 19.8914 15.0904 19.9212C15.4674 20.0169 15.785 20.2564 15.9848 20.595C16.1848 20.9342 16.2431 21.3316 16.149 21.7144C16.062 22.0686 15.8502 22.3666 15.5555 22.5711C15.7616 22.6947 15.9393 22.8633 16.0657 23.0779C16.2657 23.4171 16.324 23.8143 16.2301 24.1975C16.1359 24.5803 15.9003 24.9032 15.5667 25.1067L15.5647 25.108C15.7671 25.2313 15.9417 25.3981 16.0666 25.6095C16.2669 25.9487 16.3252 26.3462 16.231 26.7294C16.1366 27.1123 15.901 27.4352 15.5679 27.6386L8.71694 31.8165C7.4383 32.5959 5.96013 32.865 4.55536 32.5733C3.138 32.2789 1.96417 31.4508 1.25044 30.2413C0.120927 28.3277 0.290202 26.0669 1.69134 24.3413C1.7555 24.2625 1.8187 24.1823 1.87608 24.0991C1.93685 24.0112 2.00779 23.9079 2.032 23.8724C2.17703 23.6091 4.54354 19.2749 4.54329 19.2754C4.78227 18.8371 5.23019 18.5889 5.69214 18.5892C5.90763 18.5892 6.12627 18.6431 6.32796 18.7568C6.57154 18.8951 6.77613 19.0967 6.91922 19.3396C7.2134 19.838 7.22381 20.4617 6.94682 20.9664L6.22302 22.2915ZM6.25668 19.7437C6.18162 19.6164 6.07848 19.515 5.95233 19.4432C5.69157 19.2965 5.36325 19.392 5.2197 19.656C3.52633 22.7572 2.94908 23.814 2.72632 24.1901L2.7314 24.1913C2.71276 24.2543 2.71276 24.2543 2.5089 24.5504C2.43965 24.6506 2.36435 24.7468 2.2876 24.8416C1.08278 26.3254 0.942883 28.1928 1.91304 29.837C2.51398 30.8555 3.50717 31.5537 4.70976 31.8033C5.92543 32.0546 7.20673 31.8208 8.31883 31.1425L15.1704 26.9644C15.3268 26.8691 15.4372 26.7178 15.4813 26.5383C15.5253 26.3592 15.498 26.1729 15.404 26.0139C15.2108 25.6865 14.7912 25.579 14.4692 25.7761L11.0892 27.8374C10.9062 27.9491 10.6684 27.8891 10.5588 27.7027C10.4488 27.5167 10.5081 27.2752 10.6912 27.1635L14.0714 25.1022L15.1692 24.4328C15.3256 24.3373 15.4363 24.1859 15.4803 24.007C15.5244 23.8276 15.497 23.641 15.4031 23.4823C15.2096 23.1547 14.79 23.0481 14.4683 23.2445L9.99025 25.9752C9.80673 26.0872 9.56969 26.0267 9.45977 25.8406C9.34984 25.6545 9.4094 25.4131 9.5922 25.3014L15.0881 21.95C15.2445 21.8545 15.3549 21.7034 15.399 21.5239C15.443 21.3448 15.4157 21.1585 15.322 20.9995C15.2283 20.8407 15.0794 20.7285 14.9029 20.6837C14.7254 20.6389 14.5428 20.6667 14.3869 20.7617L13.3695 21.3822C13.3693 21.3822 13.3693 21.3824 13.369 21.3824H13.3688L8.89104 24.1131C8.70752 24.2254 8.47024 24.1648 8.36056 23.9785C8.25064 23.7924 8.3102 23.551 8.493 23.4393L12.971 20.7086C13.1274 20.6131 13.2381 20.4617 13.2821 20.2828C13.3305 20.0864 13.2937 19.8855 13.179 19.7172C12.98 19.4245 12.5543 19.3468 12.2316 19.5439L5.38496 23.7191C5.23509 23.8102 5.04309 23.788 4.91742 23.6647C4.79152 23.5412 4.76319 23.347 4.84794 23.1917L6.27162 20.5843C6.41447 20.3236 6.4089 20.0017 6.25661 19.7438L6.25668 19.7437Z"/>
</mask>
<path d="M6.22302 22.2915L11.8339 18.87C12.5104 18.457 13.3808 18.6324 13.8147 19.2697C13.973 19.5017 14.0539 19.7722 14.0665 20.0477C14.2757 19.9367 14.5033 19.8764 14.735 19.8764C14.8536 19.8764 14.9727 19.8914 15.0904 19.9212C15.4674 20.0169 15.785 20.2564 15.9848 20.595C16.1848 20.9342 16.2431 21.3316 16.149 21.7144C16.062 22.0686 15.8502 22.3666 15.5555 22.5711C15.7616 22.6947 15.9393 22.8633 16.0657 23.0779C16.2657 23.4171 16.324 23.8143 16.2301 24.1975C16.1359 24.5803 15.9003 24.9032 15.5667 25.1067L15.5647 25.108C15.7671 25.2313 15.9417 25.3981 16.0666 25.6095C16.2669 25.9487 16.3252 26.3462 16.231 26.7294C16.1366 27.1123 15.901 27.4352 15.5679 27.6386L8.71694 31.8165C7.4383 32.5959 5.96013 32.865 4.55536 32.5733C3.138 32.2789 1.96417 31.4508 1.25044 30.2413C0.120927 28.3277 0.290202 26.0669 1.69134 24.3413C1.7555 24.2625 1.8187 24.1823 1.87608 24.0991C1.93685 24.0112 2.00779 23.9079 2.032 23.8724C2.17703 23.6091 4.54354 19.2749 4.54329 19.2754C4.78227 18.8371 5.23019 18.5889 5.69214 18.5892C5.90763 18.5892 6.12627 18.6431 6.32796 18.7568C6.57154 18.8951 6.77613 19.0967 6.91922 19.3396C7.2134 19.838 7.22381 20.4617 6.94682 20.9664L6.22302 22.2915ZM6.25668 19.7437C6.18162 19.6164 6.07848 19.515 5.95233 19.4432C5.69157 19.2965 5.36325 19.392 5.2197 19.656C3.52633 22.7572 2.94908 23.814 2.72632 24.1901L2.7314 24.1913C2.71276 24.2543 2.71276 24.2543 2.5089 24.5504C2.43965 24.6506 2.36435 24.7468 2.2876 24.8416C1.08278 26.3254 0.942883 28.1928 1.91304 29.837C2.51398 30.8555 3.50717 31.5537 4.70976 31.8033C5.92543 32.0546 7.20673 31.8208 8.31883 31.1425L15.1704 26.9644C15.3268 26.8691 15.4372 26.7178 15.4813 26.5383C15.5253 26.3592 15.498 26.1729 15.404 26.0139C15.2108 25.6865 14.7912 25.579 14.4692 25.7761L11.0892 27.8374C10.9062 27.9491 10.6684 27.8891 10.5588 27.7027C10.4488 27.5167 10.5081 27.2752 10.6912 27.1635L14.0714 25.1022L15.1692 24.4328C15.3256 24.3373 15.4363 24.1859 15.4803 24.007C15.5244 23.8276 15.497 23.641 15.4031 23.4823C15.2096 23.1547 14.79 23.0481 14.4683 23.2445L9.99025 25.9752C9.80673 26.0872 9.56969 26.0267 9.45977 25.8406C9.34984 25.6545 9.4094 25.4131 9.5922 25.3014L15.0881 21.95C15.2445 21.8545 15.3549 21.7034 15.399 21.5239C15.443 21.3448 15.4157 21.1585 15.322 20.9995C15.2283 20.8407 15.0794 20.7285 14.9029 20.6837C14.7254 20.6389 14.5428 20.6667 14.3869 20.7617L13.3695 21.3822C13.3693 21.3822 13.3693 21.3824 13.369 21.3824H13.3688L8.89104 24.1131C8.70752 24.2254 8.47024 24.1648 8.36056 23.9785C8.25064 23.7924 8.3102 23.551 8.493 23.4393L12.971 20.7086C13.1274 20.6131 13.2381 20.4617 13.2821 20.2828C13.3305 20.0864 13.2937 19.8855 13.179 19.7172C12.98 19.4245 12.5543 19.3468 12.2316 19.5439L5.38496 23.7191C5.23509 23.8102 5.04309 23.788 4.91742 23.6647C4.79152 23.5412 4.76319 23.347 4.84794 23.1917L6.27162 20.5843C6.41447 20.3236 6.4089 20.0017 6.25661 19.7438L6.25668 19.7437Z" fill="#263238"/>
<path d="M6.22302 22.2915L7.26431 23.9991L0.887201 27.8879L4.4678 21.3328L6.22302 22.2915ZM11.8339 18.87L12.876 20.577L12.8752 20.5775L11.8339 18.87ZM13.8147 19.2697L12.1626 20.3968L12.1615 20.3953L13.8147 19.2697ZM14.0665 20.0477L15.0039 21.8144L12.2128 23.2953L12.0686 20.139L14.0665 20.0477ZM15.0904 19.9212L15.5811 17.9823L15.5827 17.9827L15.0904 19.9212ZM15.9848 20.595L17.7074 19.5788L17.7076 19.5791L15.9848 20.595ZM16.149 21.7144L14.2066 21.2377L14.2069 21.2365L16.149 21.7144ZM15.5555 22.5711L14.527 24.2864L11.8711 22.6939L14.4151 20.9281L15.5555 22.5711ZM16.0657 23.0779L14.3429 24.0938L14.3423 24.0928L16.0657 23.0779ZM16.2301 24.1975L18.1725 24.6738L18.1721 24.6755L16.2301 24.1975ZM15.5667 25.1067L14.4942 23.4186L14.5095 23.4089L14.5249 23.3995L15.5667 25.1067ZM15.5647 25.108L14.5242 26.816L11.779 25.1436L14.4922 23.4198L15.5647 25.108ZM16.0666 25.6095L17.7885 24.592L17.7889 24.5927L16.0666 25.6095ZM16.231 26.7294L18.1732 27.2067L18.1729 27.2082L16.231 26.7294ZM15.5679 27.6386L16.6098 29.3457L16.6092 29.3461L15.5679 27.6386ZM8.71694 31.8165L9.75824 33.524L9.75795 33.5242L8.71694 31.8165ZM4.55536 32.5733L4.14879 34.5315L4.14867 34.5315L4.55536 32.5733ZM1.25044 30.2413L2.97278 29.2247L2.97289 29.2249L1.25044 30.2413ZM1.69134 24.3413L0.138721 23.0806L0.140783 23.078L1.69134 24.3413ZM1.87608 24.0991L0.22973 22.9635L0.231205 22.9614L1.87608 24.0991ZM2.032 23.8724L3.78391 24.8372L3.73761 24.9213L3.68346 25.0006L2.032 23.8724ZM4.54329 19.2754L6.29929 20.2327L2.74865 18.3926L4.54329 19.2754ZM5.69214 18.5892V20.5892L5.69105 20.5892L5.69214 18.5892ZM6.32796 18.7568L7.31016 17.0146L7.31558 17.0177L6.32796 18.7568ZM6.91922 19.3396L5.19687 20.3562L5.19597 20.3547L6.91922 19.3396ZM6.94682 20.9664L5.1916 20.0077L5.19348 20.0043L6.94682 20.9664ZM6.25668 19.7437L7.97932 18.7275L8.65358 19.8706L7.86234 20.9361L6.25668 19.7437ZM5.95233 19.4432L6.93291 17.7L6.94234 17.7054L5.95233 19.4432ZM5.2197 19.656L6.97686 20.6112L6.97505 20.6146L5.2197 19.656ZM2.72632 24.1901L2.25584 26.1339L-0.372774 25.4977L1.00553 23.1708L2.72632 24.1901ZM2.7314 24.1913L3.20187 22.2474L5.24591 22.7421L4.64921 24.7588L2.7314 24.1913ZM2.5089 24.5504L4.15619 25.6846L4.15405 25.6877L2.5089 24.5504ZM2.2876 24.8416L3.84172 26.1004L3.84025 26.1022L2.2876 24.8416ZM1.91304 29.837L0.190543 30.8534L0.190509 30.8534L1.91304 29.837ZM4.70976 31.8033L4.3049 33.7619L4.30336 33.7616L4.70976 31.8033ZM8.31883 31.1425L7.27741 29.435L7.27755 29.4349L8.31883 31.1425ZM15.1704 26.9644L14.1291 25.2568L14.1302 25.2562L15.1704 26.9644ZM15.4813 26.5383L13.539 26.0613L13.5391 26.0607L15.4813 26.5383ZM15.404 26.0139L13.6822 27.0313L13.6817 27.0305L15.404 26.0139ZM14.4692 25.7761L15.5135 27.4818L15.5105 27.4836L14.4692 25.7761ZM11.0892 27.8374L10.0472 26.1303L10.0479 26.1299L11.0892 27.8374ZM10.5588 27.7027L12.2807 26.6855L12.2823 26.6881L10.5588 27.7027ZM10.6912 27.1635L9.64912 25.4564L9.64992 25.4559L10.6912 27.1635ZM14.0714 25.1022L15.1127 26.8098L15.1127 26.8098L14.0714 25.1022ZM15.1692 24.4328L16.2114 26.1398L16.2105 26.1403L15.1692 24.4328ZM15.4803 24.007L17.4226 24.484L17.4223 24.4852L15.4803 24.007ZM15.4031 23.4823L13.6819 24.5008L13.681 24.4993L15.4031 23.4823ZM14.4683 23.2445L15.5102 24.9517L15.5095 24.9521L14.4683 23.2445ZM9.99025 25.9752L8.94852 24.268L8.94897 24.2677L9.99025 25.9752ZM9.45977 25.8406L11.1817 24.8233L11.1817 24.8233L9.45977 25.8406ZM9.5922 25.3014L8.54913 23.5949L8.55093 23.5938L9.5922 25.3014ZM15.0881 21.95L16.1303 23.657L16.1294 23.6575L15.0881 21.95ZM15.399 21.5239L13.4567 21.0469L13.4568 21.0463L15.399 21.5239ZM15.322 20.9995L17.0443 19.9828L17.045 19.984L15.322 20.9995ZM14.9029 20.6837L15.3923 18.7445L15.3948 18.7451L14.9029 20.6837ZM14.3869 20.7617L13.3456 19.0542L13.3463 19.0538L14.3869 20.7617ZM13.3695 21.3822L14.4109 23.0897L13.9313 23.3822H13.3695V21.3822ZM13.3688 21.3824L12.3275 19.6749L12.8071 19.3824H13.3688V21.3824ZM8.89104 24.1131L7.84764 22.4069L7.84972 22.4056L8.89104 24.1131ZM8.36056 23.9785L10.0825 22.9612L10.0841 22.9639L8.36056 23.9785ZM8.493 23.4393L7.44992 21.7328L7.45172 21.7317L8.493 23.4393ZM12.971 20.7086L14.0132 22.4155L14.0123 22.4161L12.971 20.7086ZM13.2821 20.2828L11.3401 19.8045L11.3403 19.804L13.2821 20.2828ZM13.179 19.7172L11.5264 20.8438L11.5252 20.8419L13.179 19.7172ZM12.2316 19.5439L13.2741 21.2507L13.2729 21.2515L12.2316 19.5439ZM5.38496 23.7191L6.42626 25.4267L6.42349 25.4283L5.38496 23.7191ZM4.91742 23.6647L3.51665 25.0922L3.51659 25.0922L4.91742 23.6647ZM4.84794 23.1917L3.09231 22.2337L3.09256 22.2332L4.84794 23.1917ZM6.27162 20.5843L4.51624 19.6258L4.51776 19.623L6.27162 20.5843ZM6.25661 19.7438L4.53437 20.7606L3.85936 19.6173L4.65095 18.5513L6.25661 19.7438ZM6.22302 22.2915L5.18174 20.584L10.7926 17.1624L11.8339 18.87L12.8752 20.5775L7.26431 23.9991L6.22302 22.2915ZM11.8339 18.87L10.7917 17.1629C12.3357 16.2203 14.4065 16.5853 15.4678 18.144L13.8147 19.2697L12.1615 20.3953C12.3551 20.6796 12.685 20.6936 12.876 20.577L11.8339 18.87ZM13.8147 19.2697L15.4668 18.1425C15.857 18.7144 16.0368 19.3527 16.0644 19.9563L14.0665 20.0477L12.0686 20.139C12.071 20.1917 12.089 20.289 12.1626 20.3968L13.8147 19.2697ZM14.0665 20.0477L13.129 18.281C13.6047 18.0286 14.1521 17.8764 14.735 17.8764V19.8764V21.8764C14.8544 21.8764 14.9467 21.8447 15.0039 21.8144L14.0665 20.0477ZM14.735 19.8764V17.8764C15.0229 17.8764 15.3067 17.9129 15.5811 17.9823L15.0904 19.9212L14.5997 21.86C14.6387 21.8699 14.6843 21.8764 14.735 21.8764V19.8764ZM15.0904 19.9212L15.5827 17.9827C16.4832 18.2114 17.2405 18.7873 17.7074 19.5788L15.9848 20.595L14.2622 21.6112C14.3296 21.7254 14.4515 21.8224 14.5981 21.8596L15.0904 19.9212ZM15.9848 20.595L17.7076 19.5791C18.1732 20.3687 18.31 21.3024 18.091 22.1923L16.149 21.7144L14.2069 21.2365C14.1763 21.3609 14.1964 21.4996 14.262 21.6109L15.9848 20.595ZM16.149 21.7144L18.0913 22.1911C17.8838 23.0368 17.3756 23.7424 16.6959 24.2142L15.5555 22.5711L14.4151 20.9281C14.3247 20.9909 14.2403 21.1003 14.2066 21.2377L16.149 21.7144ZM15.5555 22.5711L16.584 20.8559C17.0447 21.1321 17.4753 21.5302 17.789 22.063L16.0657 23.0779L14.3423 24.0928C14.4033 24.1964 14.4784 24.2573 14.527 24.2864L15.5555 22.5711ZM16.0657 23.0779L17.7884 22.062C18.2542 22.8518 18.3905 23.7847 18.1725 24.6738L16.2301 24.1975L14.2876 23.7213C14.2575 23.844 14.2772 23.9824 14.3429 24.0938L16.0657 23.0779ZM16.2301 24.1975L18.1721 24.6755C17.953 25.5658 17.3969 26.3329 16.6084 26.814L15.5667 25.1067L14.5249 23.3995C14.4037 23.4735 14.3187 23.5948 14.288 23.7196L16.2301 24.1975ZM15.5667 25.1067L16.6392 26.7948L16.6372 26.7961L15.5647 25.108L14.4922 23.4198L14.4942 23.4186L15.5667 25.1067ZM15.5647 25.108L16.6052 23.3999C17.0575 23.6754 17.4793 24.0688 17.7885 24.592L16.0666 25.6095L14.3448 26.6271C14.4042 26.7275 14.4768 26.7871 14.5242 26.816L15.5647 25.108ZM16.0666 25.6095L17.7889 24.5927C18.2555 25.383 18.3919 26.317 18.1732 27.2067L16.231 26.7294L14.2888 26.252C14.2585 26.3754 14.2783 26.5144 14.3444 26.6264L16.0666 25.6095ZM16.231 26.7294L18.1729 27.2082C17.9536 28.0974 17.3982 28.8645 16.6098 29.3457L15.5679 27.6386L14.526 25.9314C14.4038 26.0059 14.3196 26.1272 14.2892 26.2506L16.231 26.7294ZM15.5679 27.6386L16.6092 29.3461L9.75824 33.524L8.71694 31.8165L7.67563 30.1089L14.5266 25.931L15.5679 27.6386ZM8.71694 31.8165L9.75795 33.5242C8.06723 34.5548 6.07419 34.9313 4.14879 34.5315L4.55536 32.5733L4.96192 30.6151C5.84608 30.7986 6.80936 30.637 7.67592 30.1088L8.71694 31.8165ZM4.55536 32.5733L4.14867 34.5315C2.19908 34.1266 0.538002 32.9693 -0.472013 31.2577L1.25044 30.2413L2.97289 29.2249C3.39034 29.9323 4.07692 30.4313 4.96204 30.6151L4.55536 32.5733ZM1.25044 30.2413L-0.471903 31.2579C-2.02678 28.6237 -1.78892 25.4546 0.138723 23.0806L1.69134 24.3413L3.24396 25.602C2.36933 26.6791 2.26864 28.0317 2.97278 29.2247L1.25044 30.2413ZM1.69134 24.3413L0.140783 23.078C0.194166 23.0125 0.217808 22.9808 0.229731 22.9635L1.87608 24.0991L3.52243 25.2347C3.41958 25.3838 3.31684 25.5125 3.2419 25.6045L1.69134 24.3413ZM1.87608 24.0991L0.231205 22.9614C0.289748 22.8767 0.358495 22.7766 0.380545 22.7443L2.032 23.8724L3.68346 25.0006C3.65709 25.0392 3.58395 25.1457 3.52095 25.2368L1.87608 24.0991ZM2.032 23.8724L0.280091 22.9076C0.350368 22.78 0.975371 21.6359 1.58685 20.5163C1.89168 19.9582 2.19198 19.4083 2.41607 18.9979C2.52811 18.7927 2.62109 18.6224 2.68606 18.5035C2.71854 18.444 2.74403 18.3973 2.76139 18.3655C2.77007 18.3496 2.77673 18.3374 2.78122 18.3292C2.78346 18.3251 2.78519 18.3219 2.78636 18.3198C2.78694 18.3187 2.78742 18.3178 2.78779 18.3172C2.78795 18.3169 2.78818 18.3164 2.78841 18.316C2.78855 18.3158 2.78889 18.3152 2.78911 18.3147C2.78978 18.3135 5.46644 17.5012 6.33794 20.1581L4.54329 19.2754L2.74865 18.3926C3.62015 21.0496 6.29679 20.2373 6.29743 20.2361C6.29762 20.2358 6.2979 20.2353 6.29797 20.2351C6.29806 20.235 6.29807 20.2349 6.29795 20.2352C6.29775 20.2355 6.29738 20.2362 6.29682 20.2372C6.29573 20.2392 6.29406 20.2423 6.29183 20.2464C6.28737 20.2545 6.28074 20.2667 6.27207 20.2826C6.25472 20.3143 6.22924 20.361 6.19676 20.4205C6.13179 20.5395 6.0388 20.7098 5.92674 20.915C5.70264 21.3254 5.4023 21.8754 5.0974 22.4336C4.48943 23.5468 3.85866 24.7015 3.78391 24.8372L2.032 23.8724ZM4.54329 19.2754L2.7873 18.3181C3.38594 17.22 4.51799 16.5885 5.69323 16.5892L5.69214 18.5892L5.69105 20.5892C5.94239 20.5893 6.1786 20.4541 6.29929 20.2327L4.54329 19.2754ZM5.69214 18.5892V16.5892C6.2434 16.5892 6.80149 16.7278 7.31016 17.0146L6.32796 18.7568L5.34577 20.499C5.45104 20.5584 5.57187 20.5892 5.69214 20.5892V18.5892ZM6.32796 18.7568L7.31558 17.0177C7.86512 17.3297 8.3227 17.7816 8.64248 18.3245L6.91922 19.3396L5.19597 20.3547C5.22956 20.4117 5.27796 20.4605 5.34035 20.4959L6.32796 18.7568ZM6.91922 19.3396L8.64157 18.323C9.29265 19.426 9.31857 20.8017 8.70017 21.9286L6.94682 20.9664L5.19348 20.0043C5.12905 20.1217 5.13415 20.25 5.19687 20.3562L6.91922 19.3396ZM6.94682 20.9664L8.70204 21.9252L7.97824 23.2503L6.22302 22.2915L4.4678 21.3328L5.1916 20.0077L6.94682 20.9664ZM6.25668 19.7437L4.53403 20.7598C4.6352 20.9313 4.78397 21.0793 4.96232 21.1809L5.95233 19.4432L6.94234 17.7054C7.37299 17.9507 7.72805 18.3016 7.97932 18.7275L6.25668 19.7437ZM5.95233 19.4432L4.97177 21.1863C5.69233 21.5916 6.59226 21.3187 6.97685 20.6112L5.2197 19.656L3.46254 18.7009C4.13425 17.4652 5.69081 17.0013 6.93289 17.7L5.95233 19.4432ZM5.2197 19.656L6.97505 20.6146C5.29799 23.6858 4.69339 24.7935 4.4471 25.2093L2.72632 24.1901L1.00553 23.1708C1.20478 22.8344 1.75466 21.8285 3.46434 18.6975L5.2197 19.656ZM2.72632 24.1901L3.19679 22.2462L3.20187 22.2474L2.7314 24.1913L2.26093 26.1352L2.25584 26.1339L2.72632 24.1901ZM2.7314 24.1913L4.64921 24.7588C4.64844 24.7614 4.61426 24.8843 4.55439 25.0233C4.49397 25.1636 4.42976 25.2722 4.38968 25.3369C4.32909 25.4347 4.23911 25.5642 4.15618 25.6846L2.5089 24.5504L0.861608 23.4162C0.914084 23.34 0.948129 23.2905 0.97278 23.2542C0.984678 23.2367 0.991531 23.2265 0.995207 23.2209C0.999169 23.2149 0.996225 23.2192 0.989525 23.23C0.977262 23.2498 0.929289 23.3281 0.880484 23.4414C0.832224 23.5535 0.805039 23.6527 0.813593 23.6238L2.7314 24.1913ZM2.5089 24.5504L4.15405 25.6877C4.04219 25.8495 3.93011 25.9913 3.84172 26.1004L2.2876 24.8416L0.733478 23.5827C0.798592 23.5023 0.837103 23.4516 0.863742 23.4131L2.5089 24.5504ZM2.2876 24.8416L3.84025 26.1022C3.16159 26.9381 3.09076 27.8973 3.63556 28.8207L1.91304 29.837L0.190509 30.8534C-1.20499 28.4882 -0.996032 25.7128 0.734947 23.5809L2.2876 24.8416ZM1.91304 29.837L3.63553 28.8207C3.93774 29.3328 4.44116 29.7049 5.11615 29.845L4.70976 31.8033L4.30336 33.7616C2.57318 33.4025 1.09021 32.3781 0.190543 30.8534L1.91304 29.837ZM4.70976 31.8033L5.11462 29.8447C5.80877 29.9882 6.57584 29.8629 7.27741 29.435L8.31883 31.1425L9.36024 32.8499C7.83763 33.7786 6.04208 34.121 4.3049 33.7619L4.70976 31.8033ZM8.31883 31.1425L7.27755 29.4349L14.1291 25.2568L15.1704 26.9644L16.2117 28.6719L9.3601 32.85L8.31883 31.1425ZM15.1704 26.9644L14.1302 25.2562C13.8301 25.4389 13.6197 25.7328 13.539 26.0613L15.4813 26.5383L17.4236 27.0153C17.2547 27.7027 16.8235 28.2993 16.2106 28.6726L15.1704 26.9644ZM15.4813 26.5383L13.5391 26.0607C13.4584 26.3891 13.5098 26.7395 13.6822 27.0313L15.404 26.0139L17.1259 24.9965C17.4862 25.6062 17.5923 26.3293 17.4234 27.016L15.4813 26.5383ZM15.404 26.0139L13.6817 27.0305C14.0457 27.6471 14.8649 27.8789 15.5135 27.4818L14.4692 25.7761L13.425 24.0704C14.7176 23.279 16.376 23.7259 17.1264 24.9972L15.404 26.0139ZM14.4692 25.7761L15.5105 27.4836L12.1306 29.5449L11.0892 27.8374L10.0479 26.1299L13.4279 24.0686L14.4692 25.7761ZM11.0892 27.8374L12.1313 29.5444C10.9856 30.2438 9.50612 29.857 8.83522 28.7174L10.5588 27.7027L12.2823 26.6881C11.8307 25.9211 10.8268 25.6544 10.0472 26.1303L11.0892 27.8374ZM10.5588 27.7027L8.83679 28.72C8.17787 27.6047 8.52107 26.145 9.64912 25.4564L10.6912 27.1635L11.7333 28.8706C12.4952 28.4054 12.7198 27.4287 12.2807 26.6855L10.5588 27.7027ZM10.6912 27.1635L9.64992 25.4559L13.0301 23.3947L14.0714 25.1022L15.1127 26.8098L11.7325 28.8711L10.6912 27.1635ZM14.0714 25.1022L13.0301 23.3947L14.1279 22.7252L15.1692 24.4328L16.2105 26.1403L15.1127 26.8098L14.0714 25.1022ZM15.1692 24.4328L14.127 22.7258C13.8308 22.9067 13.6197 23.1982 13.5383 23.5288L15.4803 24.007L17.4223 24.4852C17.2528 25.1737 16.8204 25.7679 16.2114 26.1398L15.1692 24.4328ZM15.4803 24.007L13.538 23.53C13.4578 23.8567 13.5082 24.2073 13.6819 24.5008L15.4031 23.4823L17.1243 22.4637C17.4859 23.0747 17.591 23.7985 17.4226 24.484L15.4803 24.007ZM15.4031 23.4823L13.681 24.4993C14.0467 25.1186 14.8656 25.3451 15.5102 24.9517L14.4683 23.2445L13.4263 21.5374C14.7144 20.7511 16.3726 21.1908 17.1252 22.4653L15.4031 23.4823ZM14.4683 23.2445L15.5095 24.9521L11.0315 27.6828L9.99025 25.9752L8.94897 24.2677L13.427 21.537L14.4683 23.2445ZM9.99025 25.9752L11.032 27.6825C9.88199 28.3842 8.40682 27.9903 7.7378 26.8579L9.45977 25.8406L11.1817 24.8233C10.7326 24.063 9.73146 23.7902 8.94852 24.268L9.99025 25.9752ZM9.45977 25.8406L7.7378 26.8579C7.07799 25.741 7.42392 24.2827 8.54913 23.5949L9.5922 25.3014L10.6353 27.0078C11.3949 26.5435 11.6217 25.5681 11.1817 24.8233L9.45977 25.8406ZM9.5922 25.3014L8.55093 23.5938L14.0468 20.2424L15.0881 21.95L16.1294 23.6575L10.6335 27.0089L9.5922 25.3014ZM15.0881 21.95L14.0459 20.243C13.7487 20.4244 13.5377 20.717 13.4567 21.0469L15.399 21.5239L17.3412 22.0009C17.1721 22.6897 16.7403 23.2845 16.1303 23.657L15.0881 21.95ZM15.399 21.5239L13.4568 21.0463C13.3761 21.3745 13.4275 21.7241 13.5989 22.0149L15.322 20.9995L17.045 19.984C17.4038 20.5928 17.51 21.315 17.3411 22.0016L15.399 21.5239ZM15.322 20.9995L13.5996 22.0161C13.7729 22.3096 14.0633 22.534 14.4109 22.6222L14.9029 20.6837L15.3948 18.7451C16.0954 18.9229 16.6837 19.3718 17.0443 19.9828L15.322 20.9995ZM14.9029 20.6837L14.4134 22.6229C14.7574 22.7097 15.126 22.6534 15.4275 22.4697L14.3869 20.7617L13.3463 19.0538C13.9596 18.6801 14.6934 18.5681 15.3923 18.7445L14.9029 20.6837ZM14.3869 20.7617L15.4283 22.4692L14.4109 23.0897L13.3695 21.3822L12.3282 19.6747L13.3456 19.0542L14.3869 20.7617ZM13.3695 21.3822V23.3822C13.4545 23.3822 13.544 23.3768 13.6369 23.3642C13.7301 23.3516 13.8237 23.3323 13.917 23.3058C14.0102 23.2792 14.0991 23.2466 14.1832 23.2091C14.2671 23.1718 14.343 23.1311 14.4108 23.0897C14.4783 23.0485 14.5365 23.0075 14.5854 22.9701C14.634 22.9329 14.674 22.8986 14.7047 22.8712C14.7201 22.8573 14.7336 22.8448 14.7448 22.8341C14.7561 22.8235 14.7656 22.8142 14.7729 22.807C14.7802 22.7999 14.786 22.794 14.7895 22.7905C14.7927 22.7872 14.7954 22.7845 14.795 22.7849C14.795 22.7849 14.795 22.7849 14.795 22.785C14.795 22.785 14.7949 22.785 14.7949 22.785C14.7948 22.7851 14.7948 22.7852 14.7946 22.7853C14.7944 22.7855 14.7941 22.7859 14.7936 22.7863C14.7927 22.7872 14.7913 22.7887 14.7895 22.7905C14.786 22.794 14.7801 22.7999 14.7729 22.8071C14.7655 22.8143 14.756 22.8235 14.7448 22.8342C14.7335 22.8449 14.72 22.8574 14.7046 22.8712C14.6739 22.8988 14.6339 22.933 14.5853 22.9702C14.5364 23.0076 14.4781 23.0487 14.4106 23.0899C14.3427 23.1312 14.2669 23.172 14.183 23.2093C14.0989 23.2468 14.0099 23.2795 13.9166 23.306C13.8234 23.3326 13.7297 23.3519 13.6365 23.3645C13.5436 23.377 13.4541 23.3824 13.369 23.3824V21.3824V19.3824C13.284 19.3824 13.1946 19.3878 13.1016 19.4004C13.0085 19.413 12.9148 19.4323 12.8216 19.4588C12.7283 19.4854 12.6394 19.518 12.5553 19.5555C12.4714 19.5928 12.3956 19.6335 12.3278 19.6749C12.2602 19.7161 12.202 19.7571 12.1532 19.7945C12.1046 19.8317 12.0645 19.866 12.0339 19.8935C12.0185 19.9073 12.005 19.9198 11.9937 19.9305C11.9825 19.9411 11.973 19.9504 11.9656 19.9576C11.9584 19.9648 11.9526 19.9706 11.9491 19.9741C11.9458 19.9774 11.9431 19.9801 11.9436 19.9797C11.9436 19.9797 11.9436 19.9797 11.9436 19.9797C11.9436 19.9796 11.9436 19.9796 11.9437 19.9796C11.9437 19.9795 11.9438 19.9794 11.9439 19.9793C11.9441 19.9791 11.9445 19.9787 11.945 19.9783C11.9458 19.9774 11.9473 19.9759 11.9491 19.9741C11.9526 19.9706 11.9584 19.9647 11.9657 19.9576C11.973 19.9503 11.9825 19.9411 11.9938 19.9304C12.0051 19.9197 12.0185 19.9072 12.034 19.8934C12.0646 19.8659 12.1047 19.8316 12.1533 19.7944C12.2022 19.757 12.2604 19.7159 12.328 19.6747C12.3958 19.6334 12.4717 19.5926 12.5556 19.5553C12.6397 19.5178 12.7286 19.4852 12.8219 19.4586C12.9152 19.4321 13.0088 19.4127 13.102 19.4001C13.195 19.3876 13.2845 19.3822 13.3695 19.3822V21.3822ZM13.369 21.3824V23.3824H13.3688V21.3824V19.3824H13.369V21.3824ZM13.3688 21.3824L14.4101 23.09L9.93236 25.8207L8.89104 24.1131L7.84972 22.4056L12.3275 19.6749L13.3688 21.3824ZM8.89104 24.1131L9.93444 25.8194C8.78448 26.5226 7.30602 26.1296 6.63703 24.9931L8.36056 23.9785L10.0841 22.9639C9.63445 22.2001 8.63056 21.9281 7.84764 22.4069L8.89104 24.1131ZM8.36056 23.9785L6.63859 24.9958C5.97879 23.8789 6.32471 22.4206 7.44992 21.7328L8.493 23.4393L9.53607 25.1457C10.2957 24.6814 10.5225 23.706 10.0825 22.9612L8.36056 23.9785ZM8.493 23.4393L7.45172 21.7317L11.9297 19.001L12.971 20.7086L14.0123 22.4161L9.53427 25.1468L8.493 23.4393ZM12.971 20.7086L11.9288 19.0016C11.6326 19.1824 11.4215 19.474 11.3401 19.8045L13.2821 20.2828L15.2241 20.761C15.0546 21.4494 14.6222 22.0437 14.0132 22.4155L12.971 20.7086ZM13.2821 20.2828L11.3403 19.804C11.251 20.166 11.3248 20.548 11.5265 20.8438L13.179 19.7172L14.8315 18.5906C15.2627 19.2231 15.4101 20.0067 15.224 20.7615L13.2821 20.2828ZM13.179 19.7172L11.5252 20.8419C11.9906 21.5263 12.7881 21.5475 13.2741 21.2507L12.2316 19.5439L11.189 17.8371C12.3205 17.146 13.9693 17.3228 14.8328 18.5924L13.179 19.7172ZM12.2316 19.5439L13.2729 21.2515L6.42625 25.4267L5.38496 23.7191L4.34366 22.0116L11.1903 17.8364L12.2316 19.5439ZM5.38496 23.7191L6.42349 25.4283C5.49017 25.9954 4.29394 25.855 3.51665 25.0922L4.91742 23.6647L6.3182 22.2372C5.79223 21.7211 4.98 21.6249 4.34643 22.0099L5.38496 23.7191ZM4.91742 23.6647L3.51659 25.0922C2.74743 24.3374 2.58252 23.1679 3.09231 22.2337L4.84794 23.1917L6.60356 24.1497C6.94387 23.526 6.83562 22.745 6.31826 22.2373L4.91742 23.6647ZM4.84794 23.1917L3.09256 22.2332L4.51624 19.6258L6.27162 20.5843L8.02699 21.5427L6.60331 24.1501L4.84794 23.1917ZM6.27162 20.5843L4.51776 19.623C4.31895 19.9858 4.33062 20.4155 4.53437 20.7606L6.25661 19.7438L7.97884 18.7269C8.48718 19.5879 8.50999 20.6615 8.02547 21.5455L6.27162 20.5843ZM6.25661 19.7438L4.65095 18.5513L4.65102 18.5512L6.25668 19.7437L7.86234 20.9361L7.86227 20.9362L6.25661 19.7438Z" fill="black" mask="url(#path-4-inside-2_211_2125)"/>
<mask id="path-6-inside-3_211_2125" fill="white">
<path d="M33.0343 30.2405C32.3207 31.4502 31.1472 32.2782 29.7296 32.5725C28.3246 32.8637 26.8469 32.5952 25.568 31.8157L18.7164 27.6376C18.383 27.4343 18.1472 27.1114 18.0528 26.7279C17.9591 26.3452 18.0177 25.9477 18.2174 25.609C18.3421 25.3974 18.5169 25.2305 18.7196 25.1072L18.7176 25.106C18.3842 24.9027 18.1484 24.5798 18.0545 24.1968C17.9601 23.8138 18.0187 23.4161 18.2186 23.077C18.3475 22.8591 18.524 22.6888 18.7254 22.568C18.4329 22.3635 18.2223 22.0664 18.1356 21.7139C18.0412 21.3307 18.0998 20.9332 18.2998 20.5946C18.4995 20.2556 18.8174 20.0162 19.1942 19.9204C19.3118 19.8904 19.4312 19.8756 19.5494 19.8756C19.7813 19.8759 20.0089 19.9357 20.2181 20.047C20.2309 19.7715 20.3115 19.5011 20.4699 19.2689C20.904 18.6323 21.7737 18.456 22.4512 18.8692L28.0618 22.2903L27.3386 20.9662C27.0612 20.4606 27.0713 19.837 27.3655 19.3383C27.5088 19.0957 27.7137 18.8941 27.9585 18.7545C28.1597 18.6413 28.3776 18.5877 28.5925 18.5877C29.0543 18.5879 29.5027 18.8355 29.7414 19.2739C30.5733 20.7976 32.1432 23.6713 32.2536 23.8719C32.2771 23.9066 32.348 24.01 32.4088 24.0979C32.4667 24.1813 32.5291 24.261 32.5938 24.3403C33.9947 26.0665 34.1637 28.3272 33.0342 30.2405L33.0343 30.2405ZM31.9973 24.8412C31.9203 24.7464 31.8448 24.6497 31.776 24.55C31.5668 24.2483 31.5615 24.2404 31.5457 24.1614C31.3012 23.7501 30.7046 22.6584 29.0648 19.6551C28.9209 19.3915 28.5941 19.2953 28.3338 19.4415C28.2057 19.5144 28.1028 19.616 28.0277 19.7433C27.8757 20.0009 27.8699 20.3229 28.0135 20.5843L29.4366 23.1909C29.5216 23.3465 29.4933 23.5404 29.3676 23.664C29.2422 23.7878 29.0505 23.8094 28.8999 23.7184L22.0533 19.5432C21.7305 19.3465 21.3051 19.4235 21.1056 19.7164C20.9908 19.8848 20.9543 20.0856 21.0022 20.2818C21.0463 20.4609 21.1569 20.6121 21.3136 20.7076C21.3141 20.7078 21.3143 20.7083 21.3148 20.7085L25.7914 23.4385C25.9744 23.5502 26.0337 23.7914 25.9238 23.9777C25.8139 24.1636 25.5768 24.2244 25.3933 24.1124L19.8974 20.761C19.7415 20.666 19.558 20.6379 19.3817 20.683C19.205 20.7277 19.0563 20.84 18.9626 20.9992C18.8687 21.158 18.8416 21.3443 18.8851 21.5235C18.9292 21.7026 19.0398 21.854 19.1963 21.9495L20.2657 22.6015L24.6919 25.3009C24.8749 25.4127 24.9343 25.6539 24.8243 25.8402C24.7144 26.026 24.4774 26.0866 24.2938 25.9748L19.8163 23.2441C19.4943 23.0472 19.075 23.154 18.8813 23.4819C18.7873 23.6408 18.7602 23.8272 18.8038 24.0063C18.8479 24.1855 18.9585 24.3366 19.1152 24.4324L20.2129 25.1018L23.5927 27.1631C23.7757 27.2748 23.835 27.516 23.7251 27.7023C23.6152 27.8881 23.3781 27.9492 23.1946 27.837L19.8149 25.7757C19.659 25.6807 19.4762 25.6526 19.2989 25.6977C19.1227 25.7425 18.9735 25.8547 18.8798 26.0134C18.7861 26.1724 18.7588 26.359 18.8023 26.5379C18.8464 26.7171 18.9571 26.8682 19.1137 26.9639L25.9653 31.1421C27.0771 31.8201 28.3594 32.0549 29.5743 31.8029C30.7767 31.5533 31.7699 30.8551 32.3708 29.8366C33.342 28.192 33.2023 26.3245 31.9977 24.8411L31.9973 24.8412Z"/>
</mask>
<path d="M33.0343 30.2405C32.3207 31.4502 31.1472 32.2782 29.7296 32.5725C28.3246 32.8637 26.8469 32.5952 25.568 31.8157L18.7164 27.6376C18.383 27.4343 18.1472 27.1114 18.0528 26.7279C17.9591 26.3452 18.0177 25.9477 18.2174 25.609C18.3421 25.3974 18.5169 25.2305 18.7196 25.1072L18.7176 25.106C18.3842 24.9027 18.1484 24.5798 18.0545 24.1968C17.9601 23.8138 18.0187 23.4161 18.2186 23.077C18.3475 22.8591 18.524 22.6888 18.7254 22.568C18.4329 22.3635 18.2223 22.0664 18.1356 21.7139C18.0412 21.3307 18.0998 20.9332 18.2998 20.5946C18.4995 20.2556 18.8174 20.0162 19.1942 19.9204C19.3118 19.8904 19.4312 19.8756 19.5494 19.8756C19.7813 19.8759 20.0089 19.9357 20.2181 20.047C20.2309 19.7715 20.3115 19.5011 20.4699 19.2689C20.904 18.6323 21.7737 18.456 22.4512 18.8692L28.0618 22.2903L27.3386 20.9662C27.0612 20.4606 27.0713 19.837 27.3655 19.3383C27.5088 19.0957 27.7137 18.8941 27.9585 18.7545C28.1597 18.6413 28.3776 18.5877 28.5925 18.5877C29.0543 18.5879 29.5027 18.8355 29.7414 19.2739C30.5733 20.7976 32.1432 23.6713 32.2536 23.8719C32.2771 23.9066 32.348 24.01 32.4088 24.0979C32.4667 24.1813 32.5291 24.261 32.5938 24.3403C33.9947 26.0665 34.1637 28.3272 33.0342 30.2405L33.0343 30.2405ZM31.9973 24.8412C31.9203 24.7464 31.8448 24.6497 31.776 24.55C31.5668 24.2483 31.5615 24.2404 31.5457 24.1614C31.3012 23.7501 30.7046 22.6584 29.0648 19.6551C28.9209 19.3915 28.5941 19.2953 28.3338 19.4415C28.2057 19.5144 28.1028 19.616 28.0277 19.7433C27.8757 20.0009 27.8699 20.3229 28.0135 20.5843L29.4366 23.1909C29.5216 23.3465 29.4933 23.5404 29.3676 23.664C29.2422 23.7878 29.0505 23.8094 28.8999 23.7184L22.0533 19.5432C21.7305 19.3465 21.3051 19.4235 21.1056 19.7164C20.9908 19.8848 20.9543 20.0856 21.0022 20.2818C21.0463 20.4609 21.1569 20.6121 21.3136 20.7076C21.3141 20.7078 21.3143 20.7083 21.3148 20.7085L25.7914 23.4385C25.9744 23.5502 26.0337 23.7914 25.9238 23.9777C25.8139 24.1636 25.5768 24.2244 25.3933 24.1124L19.8974 20.761C19.7415 20.666 19.558 20.6379 19.3817 20.683C19.205 20.7277 19.0563 20.84 18.9626 20.9992C18.8687 21.158 18.8416 21.3443 18.8851 21.5235C18.9292 21.7026 19.0398 21.854 19.1963 21.9495L20.2657 22.6015L24.6919 25.3009C24.8749 25.4127 24.9343 25.6539 24.8243 25.8402C24.7144 26.026 24.4774 26.0866 24.2938 25.9748L19.8163 23.2441C19.4943 23.0472 19.075 23.154 18.8813 23.4819C18.7873 23.6408 18.7602 23.8272 18.8038 24.0063C18.8479 24.1855 18.9585 24.3366 19.1152 24.4324L20.2129 25.1018L23.5927 27.1631C23.7757 27.2748 23.835 27.516 23.7251 27.7023C23.6152 27.8881 23.3781 27.9492 23.1946 27.837L19.8149 25.7757C19.659 25.6807 19.4762 25.6526 19.2989 25.6977C19.1227 25.7425 18.9735 25.8547 18.8798 26.0134C18.7861 26.1724 18.7588 26.359 18.8023 26.5379C18.8464 26.7171 18.9571 26.8682 19.1137 26.9639L25.9653 31.1421C27.0771 31.8201 28.3594 32.0549 29.5743 31.8029C30.7767 31.5533 31.7699 30.8551 32.3708 29.8366C33.342 28.192 33.2023 26.3245 31.9977 24.8411L31.9973 24.8412Z" fill="#263238"/>
<path d="M33.0343 30.2405L32.3794 28.3508L37.5223 26.5686L34.7569 31.2567L33.0343 30.2405ZM29.7296 32.5725L30.1362 34.5308L30.1354 34.5309L29.7296 32.5725ZM25.568 31.8157L24.5271 33.5235L24.5267 33.5233L25.568 31.8157ZM18.7164 27.6376L19.7577 25.93L19.7577 25.93L18.7164 27.6376ZM18.0528 26.7279L16.1108 27.2061L16.1102 27.2035L18.0528 26.7279ZM18.2174 25.609L19.9406 26.6242L19.9401 26.6251L18.2174 25.609ZM18.7196 25.1072L19.7921 23.4191L22.507 25.1439L19.7591 26.8158L18.7196 25.1072ZM18.7176 25.106L19.7589 23.3984L19.7746 23.408L19.7901 23.4178L18.7176 25.106ZM18.0545 24.1968L19.9963 23.718L19.9969 23.7204L18.0545 24.1968ZM18.2186 23.077L16.4959 22.061L16.4971 22.0589L18.2186 23.077ZM18.7254 22.568L19.8715 20.929L22.3991 22.6965L19.7542 24.2831L18.7254 22.568ZM18.1356 21.7139L20.0775 21.2354L20.0777 21.2363L18.1356 21.7139ZM18.2998 20.5946L20.0227 21.6101L20.0219 21.6115L18.2998 20.5946ZM19.1942 19.9204L19.6887 21.8583L19.6867 21.8589L19.1942 19.9204ZM19.5494 19.8756V17.8756L19.5515 17.8757L19.5494 19.8756ZM20.2181 20.047L22.2159 20.14L22.0689 23.2965L19.279 21.8128L20.2181 20.047ZM20.4699 19.2689L22.1223 20.3957L22.1221 20.3961L20.4699 19.2689ZM22.4512 18.8692L21.41 20.5768L21.4097 20.5767L22.4512 18.8692ZM28.0618 22.2903L29.8171 21.3316L33.3968 27.8857L27.0206 23.9979L28.0618 22.2903ZM27.3386 20.9662L29.0919 20.0038L29.0939 20.0075L27.3386 20.9662ZM27.3655 19.3383L25.6429 18.3221L25.6435 18.3212L27.3655 19.3383ZM27.9585 18.7545L26.9679 17.017L26.9777 17.0115L27.9585 18.7545ZM28.5925 18.5877V16.5877H28.5936L28.5925 18.5877ZM29.7414 19.2739L27.986 20.2323L27.9849 20.2303L29.7414 19.2739ZM32.2536 23.8719L30.5973 24.9929L30.5457 24.9167L30.5014 24.8361L32.2536 23.8719ZM32.4088 24.0979L30.7654 25.2377L30.764 25.2356L32.4088 24.0979ZM32.5938 24.3403L34.1436 23.0761L34.1467 23.08L32.5938 24.3403ZM33.0342 30.2405L33.6891 32.1303L28.5437 33.9134L31.3119 29.2239L33.0342 30.2405ZM31.9973 24.8412L32.1987 26.831L31.1254 26.9396L30.4451 26.1024L31.9973 24.8412ZM31.776 24.55L33.4196 23.4105L33.4223 23.4143L31.776 24.55ZM31.5457 24.1614L33.2648 23.1392L33.4402 23.4341L33.5072 23.7707L31.5457 24.1614ZM29.0648 19.6551L27.3094 20.6136L27.3091 20.6131L29.0648 19.6551ZM28.3338 19.4415L27.345 17.703L27.3543 17.6978L28.3338 19.4415ZM28.0277 19.7433L29.7504 20.7593L29.7502 20.7596L28.0277 19.7433ZM28.0135 20.5843L29.7664 19.6214L29.7689 19.6259L28.0135 20.5843ZM29.4366 23.1909L27.6815 24.1498L27.6812 24.1493L29.4366 23.1909ZM29.3676 23.664L27.9627 22.2406L27.9655 22.2378L29.3676 23.664ZM28.8999 23.7184L27.865 25.4298L27.8586 25.4259L28.8999 23.7184ZM22.0533 19.5432L23.0939 17.8352L23.0945 17.8356L22.0533 19.5432ZM21.1056 19.7164L22.7585 20.8424L22.7581 20.843L21.1056 19.7164ZM21.0022 20.2818L19.0601 20.7594L19.0594 20.7566L21.0022 20.2818ZM21.3136 20.7076L20.4072 22.4904L20.3384 22.4554L20.2726 22.4153L21.3136 20.7076ZM21.3148 20.7085L22.2212 18.9257L22.2901 18.9607L22.3561 19.001L21.3148 20.7085ZM25.7914 23.4385L26.8327 21.731L26.8334 21.7314L25.7914 23.4385ZM25.9238 23.9777L27.6463 24.9941L27.6452 24.996L25.9238 23.9777ZM25.3933 24.1124L26.4346 22.4048L26.4351 22.4051L25.3933 24.1124ZM19.8974 20.761L20.9381 19.053L20.9387 19.0534L19.8974 20.761ZM19.3817 20.683L19.8768 22.6207L19.8731 22.6217L19.3817 20.683ZM18.9626 20.9992L20.6863 22.0135L20.6838 22.0178L18.9626 20.9992ZM18.8851 21.5235L16.943 22.0011L16.9418 21.9961L18.8851 21.5235ZM19.1963 21.9495L18.1552 23.6572L18.1541 23.6565L19.1963 21.9495ZM20.2657 22.6015L21.3068 20.8938L21.3071 20.894L20.2657 22.6015ZM24.6919 25.3009L25.7333 23.5934L25.734 23.5939L24.6919 25.3009ZM24.8243 25.8402L26.5469 26.8565L26.5457 26.8585L24.8243 25.8402ZM24.2938 25.9748L23.2537 27.6831L23.2525 27.6823L24.2938 25.9748ZM19.8163 23.2441L18.775 24.9516L18.773 24.9504L19.8163 23.2441ZM18.8813 23.4819L20.6032 24.4992L20.6032 24.4992L18.8813 23.4819ZM18.8038 24.0063L16.8617 24.484L16.8604 24.479L18.8038 24.0063ZM19.1152 24.4324L18.0739 26.1399L18.0722 26.1389L19.1152 24.4324ZM20.2129 25.1018L21.2542 23.3943L21.2543 23.3943L20.2129 25.1018ZM23.5927 27.1631L24.634 25.4556L24.6347 25.456L23.5927 27.1631ZM23.7251 27.7023L25.4476 28.7186L25.4465 28.7206L23.7251 27.7023ZM23.1946 27.837L24.236 26.1295L24.2381 26.1307L23.1946 27.837ZM19.8149 25.7757L20.8555 24.0677L20.8563 24.0682L19.8149 25.7757ZM19.2989 25.6977L18.8063 23.7593L18.8064 23.7593L19.2989 25.6977ZM18.8798 26.0134L17.1568 24.998L17.1575 24.9968L18.8798 26.0134ZM18.8023 26.5379L16.8602 27.0156L16.8591 27.0112L18.8023 26.5379ZM19.1137 26.9639L18.0724 28.6715L18.0707 28.6705L19.1137 26.9639ZM25.9653 31.1421L27.0065 29.4345L27.0066 29.4345L25.9653 31.1421ZM29.5743 31.8029L29.9808 33.7611L29.9806 33.7612L29.5743 31.8029ZM32.3708 29.8366L30.6483 28.8203L30.6487 28.8197L32.3708 29.8366ZM31.9977 24.8411L31.7963 22.8513L32.87 22.7426L33.5503 23.5804L31.9977 24.8411ZM33.0343 30.2405L34.7569 31.2567C33.747 32.9687 32.0861 34.1259 30.1362 34.5308L29.7296 32.5725L29.323 30.6143C30.2083 30.4305 30.8944 29.9317 31.3116 29.2244L33.0343 30.2405ZM29.7296 32.5725L30.1354 34.5309C28.2107 34.9298 26.2184 34.5543 24.5271 33.5235L25.568 31.8157L26.6089 30.1079C27.4754 30.636 28.4385 30.7976 29.3237 30.6141L29.7296 32.5725ZM25.568 31.8157L24.5267 33.5233L17.6752 29.3452L18.7164 27.6376L19.7577 25.93L26.6093 30.1081L25.568 31.8157ZM18.7164 27.6376L17.6752 29.3452C16.8863 28.8642 16.3301 28.0968 16.1108 27.2061L18.0528 26.7279L19.9948 26.2497C19.9643 26.126 19.8797 26.0044 19.7577 25.93L18.7164 27.6376ZM18.0528 26.7279L16.1102 27.2035C15.8925 26.3146 16.0295 25.3817 16.4947 24.593L18.2174 25.609L19.9401 26.6251C20.0058 26.5137 20.0256 26.3758 19.9954 26.2523L18.0528 26.7279ZM18.2174 25.609L16.4942 24.5939C16.8042 24.0677 17.2278 23.6738 17.68 23.3986L18.7196 25.1072L19.7591 26.8158C19.8061 26.7872 19.88 26.727 19.9406 26.6242L18.2174 25.609ZM18.7196 25.1072L17.6471 26.7953L17.6451 26.7941L18.7176 25.106L19.7901 23.4178L19.7921 23.4191L18.7196 25.1072ZM18.7176 25.106L17.6764 26.8135C16.888 26.3328 16.3308 25.5652 16.1121 24.6732L18.0545 24.1968L19.9969 23.7204C19.966 23.5943 19.8805 23.4726 19.7589 23.3984L18.7176 25.106ZM18.0545 24.1968L16.1126 24.6756C15.8929 23.7844 16.0305 22.8501 16.4959 22.061L18.2186 23.077L19.9414 24.093C20.0068 23.982 20.0272 23.8433 19.9963 23.718L18.0545 24.1968ZM18.2186 23.077L16.4971 22.0589C16.8036 21.5406 17.2243 21.1362 17.6966 20.8529L18.7254 22.568L19.7542 24.2831C19.8236 24.2415 19.8913 24.1777 19.9402 24.095L18.2186 23.077ZM18.7254 22.568L17.5793 24.207C16.9054 23.7358 16.4005 23.0334 16.1935 22.1915L18.1356 21.7139L20.0777 21.2363C20.0441 21.0994 19.9605 20.9912 19.8715 20.929L18.7254 22.568ZM18.1356 21.7139L16.1937 22.1924C15.9742 21.3015 16.1114 20.3671 16.5776 19.5776L18.2998 20.5946L20.0219 21.6115C20.0881 21.4994 20.1082 21.36 20.0775 21.2354L18.1356 21.7139ZM18.2998 20.5946L16.5768 19.579C17.0439 18.7865 17.8017 18.2107 18.7017 17.982L19.1942 19.9204L19.6867 21.8589C19.8331 21.8217 19.9551 21.7248 20.0227 21.6101L18.2998 20.5946ZM19.1942 19.9204L18.6997 17.9825C18.9791 17.9112 19.2646 17.8756 19.5494 17.8756V19.8756V21.8756C19.5978 21.8756 19.6446 21.8696 19.6887 21.8583L19.1942 19.9204ZM19.5494 19.8756L19.5515 17.8757C20.1303 17.8763 20.6778 18.0262 21.1572 18.2811L20.2181 20.047L19.279 21.8128C19.34 21.8452 19.4323 21.8755 19.5472 21.8756L19.5494 19.8756ZM20.2181 20.047L18.2203 19.9539C18.2483 19.3528 18.4269 18.7147 18.8177 18.1418L20.4699 19.2689L22.1221 20.3961C22.1962 20.2874 22.2136 20.1903 22.2159 20.14L20.2181 20.047ZM20.4699 19.2689L18.8175 18.1422C19.8784 16.5863 21.9469 16.219 23.4926 17.1618L22.4512 18.8692L21.4097 20.5767C21.6005 20.693 21.9296 20.6783 22.1223 20.3957L20.4699 19.2689ZM22.4512 18.8692L23.4924 17.1616L29.103 20.5827L28.0618 22.2903L27.0206 23.9979L21.41 20.5768L22.4512 18.8692ZM28.0618 22.2903L26.3066 23.249L25.5834 21.9248L27.3386 20.9662L29.0939 20.0075L29.8171 21.3316L28.0618 22.2903ZM27.3386 20.9662L25.5854 21.9285C24.9669 20.8017 24.9916 19.4261 25.6429 18.3221L27.3655 19.3383L29.0881 20.3546C29.1511 20.2478 29.1554 20.1196 29.0919 20.0038L27.3386 20.9662ZM27.3655 19.3383L25.6435 18.3212C25.964 17.7785 26.4212 17.3288 26.9679 17.017L27.9585 18.7545L28.949 20.492C29.0062 20.4594 29.0537 20.4128 29.0876 20.3554L27.3655 19.3383ZM27.9585 18.7545L26.9777 17.0115C27.4855 16.7258 28.0423 16.5877 28.5925 16.5877V18.5877V20.5877C28.7128 20.5877 28.8338 20.5568 28.9392 20.4975L27.9585 18.7545ZM28.5925 18.5877L28.5936 16.5877C29.7645 16.5883 30.8983 17.2164 31.4979 18.3174L29.7414 19.2739L27.9849 20.2303C28.1071 20.4546 28.344 20.5875 28.5915 20.5877L28.5925 18.5877ZM29.7414 19.2739L31.4968 18.3155C32.3301 19.8418 33.8975 22.7109 34.0058 22.9077L32.2536 23.8719L30.5014 24.8361C30.3889 24.6317 28.8165 21.7534 27.986 20.2323L29.7414 19.2739ZM32.2536 23.8719L33.91 22.751C33.9275 22.7769 33.9937 22.8735 34.0537 22.9601L32.4088 24.0979L30.764 25.2356C30.7023 25.1465 30.6267 25.0363 30.5973 24.9929L32.2536 23.8719ZM32.4088 24.0979L34.0522 22.958C34.0677 22.9803 34.0935 23.0147 34.1436 23.0761L32.5938 24.3403L31.044 25.6044C30.9648 25.5074 30.8657 25.3823 30.7654 25.2377L32.4088 24.0979ZM32.5938 24.3403L34.1467 23.08C36.0738 25.4545 36.3114 28.6232 34.7565 31.2572L33.0342 30.2405L31.3119 29.2239C32.016 28.0311 31.9157 26.6785 31.0408 25.6006L32.5938 24.3403ZM33.0342 30.2405L32.3793 28.3508L32.3794 28.3508L33.0343 30.2405L33.6891 32.1303L33.6891 32.1303L33.0342 30.2405ZM31.9973 24.8412L30.4451 26.1024C30.3542 25.9906 30.2415 25.8477 30.1297 25.6857L31.776 24.55L33.4223 23.4143C33.448 23.4516 33.4863 23.5023 33.5495 23.5799L31.9973 24.8412ZM31.776 24.55L30.1323 25.6895C30.054 25.5765 29.9443 25.4207 29.8689 25.2938C29.8163 25.2052 29.7415 25.0685 29.6778 24.8923C29.616 24.7212 29.5889 24.5752 29.5843 24.5521L31.5457 24.1614L33.5072 23.7707C33.5105 23.7871 33.4899 23.6717 33.44 23.5337C33.3884 23.3906 33.3309 23.2896 33.3077 23.2506C33.2896 23.22 33.2815 23.2097 33.3084 23.2493C33.332 23.284 33.3652 23.332 33.4196 23.4105L31.776 24.55ZM31.5457 24.1614L29.8267 25.1836C29.5575 24.7308 28.9329 23.5868 27.3094 20.6136L29.0648 19.6551L30.8201 18.6966C32.4764 21.7299 33.0449 22.7694 33.2648 23.1392L31.5457 24.1614ZM29.0648 19.6551L27.3091 20.6131C27.6895 21.3103 28.585 21.5943 29.3132 21.1853L28.3338 19.4415L27.3543 17.6978C28.6031 16.9963 30.1524 17.4728 30.8204 18.6972L29.0648 19.6551ZM28.3338 19.4415L29.3226 21.18C29.5005 21.0788 29.6496 20.9303 29.7504 20.7593L28.0277 19.7433L26.3051 18.7272C26.556 18.3017 26.9109 17.9499 27.345 17.703L28.3338 19.4415ZM28.0277 19.7433L29.7502 20.7596C29.9541 20.4142 29.9656 19.9839 29.7664 19.6214L28.0135 20.5843L26.2605 21.5471C25.7742 20.6618 25.7973 19.5877 26.3053 18.7269L28.0277 19.7433ZM28.0135 20.5843L29.7689 19.6259L31.192 22.2325L29.4366 23.1909L27.6812 24.1493L26.2581 21.5427L28.0135 20.5843ZM29.4366 23.1909L31.1918 22.232C31.7022 23.1662 31.5378 24.3351 30.7698 25.0901L29.3676 23.664L27.9655 22.2378C27.4488 22.7458 27.3411 23.5267 27.6815 24.1498L29.4366 23.1909ZM29.3676 23.664L30.7726 25.0873C29.9892 25.8607 28.7911 25.9898 27.865 25.4298L28.8999 23.7184L29.9347 22.0069C29.3098 21.629 28.4953 21.7149 27.9627 22.2406L29.3676 23.664ZM28.8999 23.7184L27.8586 25.4259L21.012 21.2507L22.0533 19.5432L23.0945 17.8356L29.9412 22.0108L28.8999 23.7184ZM22.0533 19.5432L21.0126 21.2511C21.4958 21.5455 22.2923 21.5268 22.7585 20.8424L21.1056 19.7164L19.4527 18.5904C20.3179 17.3203 21.9653 17.1475 23.0939 17.8352L22.0533 19.5432ZM21.1056 19.7164L22.7581 20.843C22.9606 20.546 23.0326 20.1654 22.945 19.807L21.0022 20.2818L19.0594 20.7566C18.8759 20.0058 19.0211 19.2235 19.4531 18.5899L21.1056 19.7164ZM21.0022 20.2818L22.9443 19.8041C22.8627 19.4723 22.6506 19.1803 22.3546 18.9998L21.3136 20.7076L20.2726 22.4153C19.6632 22.0438 19.2298 21.4496 19.0601 20.7594L21.0022 20.2818ZM21.3136 20.7076L22.22 18.9247C22.4015 19.017 22.5345 19.1196 22.6181 19.1915C22.639 19.2095 22.6572 19.2259 22.6724 19.24C22.6876 19.254 22.7004 19.2663 22.7102 19.2759C22.72 19.2854 22.7278 19.2932 22.7325 19.2979C22.7349 19.3003 22.7368 19.3023 22.738 19.3035C22.7386 19.3041 22.7391 19.3046 22.7394 19.3049C22.7395 19.3051 22.7397 19.3052 22.7397 19.3053C22.7398 19.3053 22.7398 19.3053 22.7398 19.3054C22.7398 19.3054 22.7398 19.3054 22.7399 19.3054C22.7399 19.3054 22.7399 19.3054 22.7399 19.3054C22.74 19.3056 22.7391 19.3046 22.7381 19.3036C22.7369 19.3024 22.735 19.3005 22.7326 19.2981C22.7279 19.2934 22.7202 19.2856 22.7105 19.2761C22.7007 19.2666 22.6879 19.2544 22.6728 19.2404C22.6576 19.2263 22.6395 19.21 22.6186 19.192C22.5353 19.1203 22.4025 19.0179 22.2212 18.9257L21.3148 20.7085L20.4084 22.4914C20.2268 22.399 20.0938 22.2964 20.0103 22.2246C19.9894 22.2066 19.9712 22.1902 19.956 22.1761C19.9408 22.1621 19.928 22.1498 19.9182 22.1402C19.9084 22.1307 19.9006 22.1229 19.8959 22.1182C19.8935 22.1157 19.8915 22.1138 19.8904 22.1126C19.8898 22.112 19.8893 22.1115 19.889 22.1112C19.8888 22.111 19.8887 22.1109 19.8886 22.1108C19.8886 22.1108 19.8886 22.1108 19.8885 22.1107C19.8885 22.1107 19.8885 22.1107 19.8885 22.1107C19.8885 22.1107 19.8885 22.1107 19.8885 22.1107C19.8883 22.1105 19.8892 22.1114 19.8903 22.1125C19.8915 22.1137 19.8934 22.1156 19.8958 22.118C19.9004 22.1227 19.9082 22.1305 19.9179 22.1399C19.9277 22.1495 19.9404 22.1617 19.9556 22.1757C19.9707 22.1898 19.9889 22.2061 20.0097 22.2241C20.0931 22.2957 20.2259 22.3982 20.4072 22.4904L21.3136 20.7076ZM21.3148 20.7085L22.3561 19.001L26.8327 21.731L25.7914 23.4385L24.7501 25.146L20.2735 22.4161L21.3148 20.7085ZM25.7914 23.4385L26.8334 21.7314C27.9617 22.4202 28.3042 23.8791 27.6463 24.9941L25.9238 23.9777L24.2013 22.9614C23.7633 23.7037 23.9871 24.6803 24.7493 25.1456L25.7914 23.4385ZM25.9238 23.9777L27.6452 24.996C26.977 26.1255 25.5031 26.5223 24.3515 25.8196L25.3933 24.1124L26.4351 22.4051C25.6506 21.9264 24.6507 22.2016 24.2024 22.9595L25.9238 23.9777ZM25.3933 24.1124L24.352 25.8199L18.8562 22.4685L19.8974 20.761L20.9387 19.0534L26.4346 22.4048L25.3933 24.1124ZM19.8974 20.761L18.8568 22.4689C19.1559 22.6512 19.5255 22.7105 19.8768 22.6207L19.3817 20.683L18.8866 18.7452C19.5905 18.5654 20.3271 18.6808 20.9381 19.053L19.8974 20.761ZM19.3817 20.683L19.8731 22.6217C20.2222 22.5332 20.5135 22.3073 20.6863 22.0135L18.9626 20.9992L17.2389 19.9849C17.5992 19.3727 18.1877 18.9223 18.8904 18.7442L19.3817 20.683ZM18.9626 20.9992L20.6838 22.0178C20.8581 21.7232 20.907 21.3738 20.8285 21.0508L18.8851 21.5235L16.9418 21.9961C16.7761 21.3148 16.8792 20.5927 17.2414 19.9807L18.9626 20.9992ZM18.8851 21.5235L20.8273 21.0458C20.746 20.7154 20.535 20.4235 20.2384 20.2425L19.1963 21.9495L18.1541 23.6565C17.5447 23.2845 17.1124 22.6899 16.943 22.0011L18.8851 21.5235ZM19.1963 21.9495L20.2373 20.2418L21.3068 20.8938L20.2657 22.6015L19.2246 24.3091L18.1552 23.6572L19.1963 21.9495ZM20.2657 22.6015L21.3071 20.894L25.7333 23.5934L24.6919 25.3009L23.6505 27.0084L19.2243 24.309L20.2657 22.6015ZM24.6919 25.3009L25.734 23.5939C26.8623 24.2826 27.2047 25.7416 26.5469 26.8565L24.8243 25.8402L23.1018 24.8239C22.6638 25.5662 22.8876 26.5427 23.6498 27.008L24.6919 25.3009ZM24.8243 25.8402L26.5457 26.8585C25.8764 27.9899 24.4027 28.3826 23.2537 27.6831L24.2938 25.9748L25.334 24.2665C24.5521 23.7905 23.5524 24.0621 23.103 24.8219L24.8243 25.8402ZM24.2938 25.9748L23.2525 27.6823L18.775 24.9516L19.8163 23.2441L20.8577 21.5366L25.3352 24.2673L24.2938 25.9748ZM19.8163 23.2441L18.773 24.9504C19.4195 25.3457 20.2385 25.1164 20.6032 24.4992L18.8813 23.4819L17.1594 22.4645C17.9114 21.1917 19.5692 20.7487 20.8597 21.5378L19.8163 23.2441ZM18.8813 23.4819L20.6032 24.4992C20.7765 24.2058 20.8258 23.857 20.7471 23.5337L18.8038 24.0063L16.8604 24.479C16.6946 23.7973 16.7981 23.0758 17.1594 22.4645L18.8813 23.4819ZM18.8038 24.0063L20.7459 23.5287C20.6642 23.1966 20.4523 22.9056 20.1581 22.7258L19.1152 24.4324L18.0722 26.1389C17.4647 25.7676 17.0315 25.1744 16.8617 24.484L18.8038 24.0063ZM19.1152 24.4324L20.1564 22.7248L21.2542 23.3943L20.2129 25.1018L19.1716 26.8094L18.0739 26.1399L19.1152 24.4324ZM20.2129 25.1018L21.2543 23.3943L24.634 25.4556L23.5927 27.1631L22.5513 28.8706L19.1715 26.8093L20.2129 25.1018ZM23.5927 27.1631L24.6347 25.456C25.763 26.1448 26.1055 27.6037 25.4476 28.7186L23.7251 27.7023L22.0026 26.686C21.5646 27.4283 21.7884 28.4049 22.5506 28.8701L23.5927 27.1631ZM23.7251 27.7023L25.4465 28.7206C24.7795 29.8482 23.3054 30.249 22.1512 29.5432L23.1946 27.837L24.2381 26.1307C23.4509 25.6493 22.4509 25.9281 22.0037 26.6841L23.7251 27.7023ZM23.1946 27.837L22.1532 29.5444L18.7735 27.4832L19.8149 25.7757L20.8563 24.0682L24.236 26.1295L23.1946 27.837ZM19.8149 25.7757L18.7743 27.4836C19.074 27.6663 19.4433 27.7245 19.7915 27.6361L19.2989 25.6977L18.8064 23.7593C19.509 23.5807 20.2439 23.6951 20.8555 24.0677L19.8149 25.7757ZM19.2989 25.6977L19.7915 27.6361C20.1381 27.548 20.4285 27.3243 20.6022 27.0301L18.8798 26.0134L17.1575 24.9968C17.5185 24.3851 18.1073 23.9369 18.8063 23.7593L19.2989 25.6977ZM18.8798 26.0134L20.6029 27.0289C20.7742 26.7382 20.8249 26.3905 20.7455 26.0646L18.8023 26.5379L16.8591 27.0112C16.6926 26.3275 16.798 25.6067 17.1568 24.998L18.8798 26.0134ZM18.8023 26.5379L20.7445 26.0603C20.6628 25.7282 20.4508 25.4372 20.1567 25.2574L19.1137 26.9639L18.0707 28.6705C17.4633 28.2992 17.03 27.706 16.8602 27.0156L18.8023 26.5379ZM19.1137 26.9639L20.155 25.2564L27.0065 29.4345L25.9653 31.1421L24.924 32.8496L18.0724 28.6715L19.1137 26.9639ZM25.9653 31.1421L27.0066 29.4345C27.7089 29.8628 28.4764 29.988 29.1681 29.8446L29.5743 31.8029L29.9806 33.7612C28.2423 34.1218 26.4454 33.7774 24.9239 32.8496L25.9653 31.1421ZM29.5743 31.8029L29.1679 29.8446C29.8426 29.7046 30.3461 29.3325 30.6483 28.8203L32.3708 29.8366L34.0933 30.853C33.1937 32.3777 31.7107 33.4021 29.9808 33.7611L29.5743 31.8029ZM32.3708 29.8366L30.6487 28.8197C31.1942 27.8959 31.1231 26.9368 30.4451 26.1019L31.9977 24.8411L33.5503 23.5804C35.2814 25.7122 35.4897 28.4882 34.093 30.8536L32.3708 29.8366ZM31.9977 24.8411L32.1991 26.831L32.1987 26.831L31.9973 24.8412L31.7959 22.8513L31.7963 22.8513L31.9977 24.8411Z" fill="black" mask="url(#path-6-inside-3_211_2125)"/>
</svg>
