<svg width="51" height="47" viewBox="0 0 51 47" fill="none" xmlns="http://www.w3.org/2000/svg">
<path d="M50.7923 34.1529C50.7923 41.0726 45.1828 46.6821 38.263 46.6821L19.4692 46.6821C17.547 46.6821 15.9888 45.1239 15.9888 43.2018L15.9888 19.5354C15.9888 15.6911 19.1052 12.5747 22.9495 12.5747L47.312 12.5747C49.2341 12.5747 50.7923 14.1329 50.7923 16.0551L50.7923 34.1529Z" fill="#9D9E52" fill-opacity="0.7"/>
<path d="M16.502 13.5C18.645 13.5001 20.459 15.4104 20.459 17.8291C20.4589 19.35 19.7335 20.6807 18.6572 21.4502L17.8818 22.0049L18.7783 22.3281C20.1385 22.8181 21.3211 23.7372 22.1934 24.9482L22.5068 25.3828L22.918 25.041C23.3921 24.648 23.9205 24.3328 24.4893 24.1074L25.291 23.7891L24.6172 23.252C23.7998 22.5988 23.2559 21.5395 23.2559 20.3389C23.2559 18.3222 24.7635 16.7422 26.5283 16.7422C28.293 16.7425 29.7998 18.3223 29.7998 20.3389C29.7998 21.5403 29.2555 22.5999 28.4375 23.2529L27.7646 23.79L28.5645 24.1084C30.8429 25.0144 32.4998 27.4033 32.5 30.25V32.3848C32.4997 32.427 32.4838 32.4582 32.4668 32.4766C32.4502 32.4944 32.437 32.4961 32.4307 32.4961H23.7051L23.6758 32.5H9.32715L9.29785 32.4961H0.569336C0.565362 32.4961 0.560232 32.4956 0.554688 32.4932L0.533203 32.4766L0.509766 32.4385L0.5 32.3838V30.25C0.500172 27.4037 2.15946 25.0143 4.43945 24.1084L5.24023 23.79L4.56738 23.2529C3.74926 22.5996 3.20508 21.5402 3.20508 20.3389C3.20519 18.3223 4.71172 16.7422 6.47656 16.7422C8.24139 16.7422 9.74793 18.3223 9.74805 20.3389C9.74805 21.5395 9.20417 22.5986 8.38672 23.252L7.71387 23.79L8.51562 24.1074C9.08327 24.3324 9.61093 24.6464 10.084 25.0381L10.4961 25.3799L10.8086 24.9463C11.6266 23.8118 12.719 22.9337 13.9736 22.4248L14.2266 22.3281L15.123 22.0049L14.3477 21.4502C13.271 20.6808 12.545 19.3502 12.5449 17.8291C12.5449 15.4859 14.2472 13.6202 16.3018 13.5059L16.502 13.5ZM16.4541 22.1514C12.4998 22.1788 9.39941 25.6062 9.39941 29.8076V32.2744H23.6045V29.8076L23.5957 29.416C23.416 25.5253 20.5723 22.3866 16.917 22.1641L16.5488 22.1514H16.5449C16.5291 22.1514 16.5156 22.1528 16.5059 22.1533H16.499C16.4913 22.1529 16.4805 22.1526 16.4678 22.1523L16.458 22.6299L16.4678 22.1514H16.4541ZM6.42871 23.9375C3.17381 23.9656 0.637878 26.7936 0.637695 30.25V32.2705H9.26074V29.8076C9.26079 28.3844 9.6118 27.0549 10.2158 25.9043L10.4004 25.5508L10.0977 25.292C9.17307 24.5018 8.01878 24.0078 6.75 23.9453L6.74609 23.9355L6.42871 23.9375ZM26.5312 23.9395H26.5254C26.5175 23.939 26.506 23.9387 26.4932 23.9385L26.4863 24.3359L26.4844 23.9385L26.4814 24.1885L26.4795 23.9385C25.1209 23.9502 23.8836 24.4561 22.9043 25.2939L22.6016 25.5527L22.7861 25.9062C23.389 27.0566 23.7382 28.3851 23.7383 29.8076V32.2705H32.3662V30.251C32.3662 26.9025 29.9861 24.1436 26.8779 23.9492L26.5752 23.9385H26.5713C26.5554 23.9385 26.5411 23.9389 26.5312 23.9395ZM6.31152 16.9717C4.62002 17.0637 3.34285 18.563 3.34277 20.3389C3.34277 22.1028 4.60315 23.5946 6.27832 23.7051L6.44141 23.7119H6.44727C6.45856 23.7119 6.46853 23.7112 6.47559 23.7109V23.71H6.49121L6.47656 23.7109L6.50586 23.7119H6.51172C8.26747 23.6908 9.61035 22.1599 9.61035 20.3389C9.61027 18.563 8.33309 17.0637 6.6416 16.9717L6.47656 16.9678L6.31152 16.9717ZM26.3623 16.9717C24.6709 17.0637 23.3936 18.5631 23.3936 20.3389C23.3936 22.1028 24.654 23.5945 26.3291 23.7051L26.4922 23.7119H26.498L26.5273 23.7109L26.5566 23.7119H26.5625C28.3183 23.6909 29.6611 22.16 29.6611 20.3389C29.6611 18.5629 28.3839 17.0636 26.6924 16.9717L26.5273 16.9678L26.3623 16.9717ZM16.501 13.7256C14.3498 13.7259 12.6846 15.5941 12.6846 17.8291C12.6847 19.9787 14.2245 21.7818 16.2539 21.9189L16.4512 21.9268H16.458C16.4739 21.9268 16.4882 21.9263 16.498 21.9258C16.4991 21.9257 16.5 21.9249 16.501 21.9248C16.5026 21.9249 16.5042 21.9257 16.5059 21.9258L16.5449 21.9268H16.5518C18.6775 21.8969 20.3202 20.0481 20.3203 17.8291C20.3203 15.5941 18.653 13.7257 16.502 13.7256H16.501Z" fill="#263238" stroke="black"/>
</svg>
