<svg width="171" height="41" viewBox="0 0 171 41" fill="none" xmlns="http://www.w3.org/2000/svg">
<path d="M4.7176 8.76623H0.455631V7.70981H4.70147C5.06705 7.70981 5.36946 7.64933 5.6087 7.52836C5.84794 7.40471 6.02535 7.23536 6.14094 7.02032C6.25653 6.80258 6.31432 6.55259 6.31432 6.27034C6.31432 5.99078 6.25653 5.74078 6.14094 5.52036C6.02535 5.29994 5.84928 5.12656 5.61273 5.00022C5.37618 4.87119 5.0778 4.80667 4.7176 4.80667H2.95959V12H1.71769V3.74219H4.7176C5.34392 3.74219 5.86675 3.85509 6.2861 4.08089C6.70813 4.30669 7.02398 4.61044 7.23365 4.99215C7.44601 5.37386 7.55219 5.79858 7.55219 6.26631C7.55219 6.73941 7.44466 7.16547 7.22962 7.54449C7.01726 7.92083 6.70006 8.2192 6.27803 8.43963C5.85869 8.65736 5.33854 8.76623 4.7176 8.76623ZM4.77808 9.45976V10.5202H0.455631V9.45976H4.77808Z" fill="white"/>
<path d="M10.7159 32V27.9545L19.2045 20.5227C19.8409 19.947 20.3826 19.4205 20.8295 18.9432C21.2765 18.4583 21.6174 17.9735 21.8523 17.4886C22.0871 16.9962 22.2045 16.4621 22.2045 15.8864C22.2045 15.2424 22.0644 14.6932 21.7841 14.2386C21.5038 13.7765 21.1174 13.4205 20.625 13.1705C20.1326 12.9205 19.5682 12.7955 18.9318 12.7955C18.2879 12.7955 17.7235 12.928 17.2386 13.1932C16.7538 13.4508 16.375 13.8258 16.1023 14.3182C15.8371 14.8106 15.7045 15.4091 15.7045 16.1136H10.375C10.375 14.5303 10.7311 13.1629 11.4432 12.0114C12.1553 10.8598 13.1553 9.97348 14.4432 9.35227C15.7386 8.72348 17.2424 8.40909 18.9545 8.40909C20.7197 8.40909 22.2538 8.70454 23.5568 9.29545C24.8598 9.88636 25.8674 10.7121 26.5795 11.7727C27.2992 12.8258 27.6591 14.0492 27.6591 15.4432C27.6591 16.3295 27.4811 17.2083 27.125 18.0795C26.7689 18.9508 26.1288 19.9129 25.2045 20.9659C24.2879 22.0189 22.9848 23.2803 21.2955 24.75L18.5114 27.3182V27.4659H27.9432V32H10.7159ZM30.3381 28.1364V23.75L39.8722 8.72727H43.7699V14.6818H41.5085L35.929 23.5227V23.7045H49.7358V28.1364H30.3381ZM41.5767 32V26.7955L41.6903 24.875V8.72727H46.9517V32H41.5767ZM68.321 8.40909C69.5938 8.40909 70.8097 8.61742 71.9688 9.03409C73.1278 9.44318 74.1619 10.0985 75.071 11C75.9801 11.8939 76.696 13.072 77.2188 14.5341C77.7415 15.9962 78.0028 17.7803 78.0028 19.8864C78.0104 21.8258 77.7831 23.5644 77.321 25.1023C76.8589 26.6326 76.196 27.9356 75.3324 29.0114C74.4763 30.0871 73.446 30.9091 72.2415 31.4773C71.0369 32.0379 69.6922 32.3182 68.2074 32.3182C66.571 32.3182 65.1278 32.0038 63.8778 31.375C62.6354 30.7386 61.6392 29.8826 60.8892 28.8068C60.1468 27.7311 59.7036 26.5265 59.5597 25.1932H65.0938C65.268 25.9659 65.6354 26.5492 66.196 26.9432C66.7566 27.3295 67.4271 27.5227 68.2074 27.5227C69.6316 27.5227 70.696 26.9053 71.4006 25.6705C72.1051 24.4356 72.4574 22.7576 72.4574 20.6364H72.321C71.9953 21.3333 71.5331 21.9318 70.9347 22.4318C70.3438 22.9318 69.6581 23.3144 68.8778 23.5795C68.0975 23.8447 67.2756 23.9773 66.4119 23.9773C65.018 23.9773 63.7869 23.6591 62.7188 23.0227C61.6581 22.3864 60.8248 21.5114 60.2188 20.3977C59.6203 19.2841 59.3172 18.0114 59.3097 16.5795C59.3021 14.9735 59.6771 13.5568 60.4347 12.3295C61.1922 11.0947 62.2491 10.1326 63.6051 9.44318C64.9612 8.74621 66.5331 8.40151 68.321 8.40909ZM68.3551 12.7273C67.6581 12.7273 67.0369 12.8902 66.4915 13.2159C65.9536 13.5417 65.5294 13.9811 65.2188 14.5341C64.9081 15.0871 64.7566 15.7083 64.7642 16.3977C64.7718 17.0871 64.9271 17.7083 65.2301 18.2614C65.5407 18.8144 65.9612 19.2538 66.4915 19.5795C67.0294 19.9053 67.643 20.0682 68.3324 20.0682C68.8475 20.0682 69.3248 19.9735 69.7642 19.7841C70.2036 19.5947 70.5862 19.3333 70.9119 19C71.2377 18.6591 71.4915 18.2652 71.6733 17.8182C71.8627 17.3712 71.9536 16.8939 71.946 16.3864C71.9384 15.7121 71.7794 15.0985 71.4688 14.5455C71.1581 13.9924 70.7301 13.553 70.1847 13.2273C69.6468 12.8939 69.0369 12.7273 68.3551 12.7273ZM89.8523 8.40909C91.125 8.40909 92.3409 8.61742 93.5 9.03409C94.6591 9.44318 95.6932 10.0985 96.6023 11C97.5114 11.8939 98.2273 13.072 98.75 14.5341C99.2727 15.9962 99.5341 17.7803 99.5341 19.8864C99.5417 21.8258 99.3144 23.5644 98.8523 25.1023C98.3902 26.6326 97.7273 27.9356 96.8636 29.0114C96.0076 30.0871 94.9773 30.9091 93.7727 31.4773C92.5682 32.0379 91.2235 32.3182 89.7386 32.3182C88.1023 32.3182 86.6591 32.0038 85.4091 31.375C84.1667 30.7386 83.1705 29.8826 82.4205 28.8068C81.678 27.7311 81.2348 26.5265 81.0909 25.1932H86.625C86.7992 25.9659 87.1667 26.5492 87.7273 26.9432C88.2879 27.3295 88.9583 27.5227 89.7386 27.5227C91.1629 27.5227 92.2273 26.9053 92.9318 25.6705C93.6364 24.4356 93.9886 22.7576 93.9886 20.6364H93.8523C93.5265 21.3333 93.0644 21.9318 92.4659 22.4318C91.875 22.9318 91.1894 23.3144 90.4091 23.5795C89.6288 23.8447 88.8068 23.9773 87.9432 23.9773C86.5492 23.9773 85.3182 23.6591 84.25 23.0227C83.1894 22.3864 82.3561 21.5114 81.75 20.3977C81.1515 19.2841 80.8485 18.0114 80.8409 16.5795C80.8333 14.9735 81.2083 13.5568 81.9659 12.3295C82.7235 11.0947 83.7803 10.1326 85.1364 9.44318C86.4924 8.74621 88.0644 8.40151 89.8523 8.40909ZM89.8864 12.7273C89.1894 12.7273 88.5682 12.8902 88.0227 13.2159C87.4848 13.5417 87.0606 13.9811 86.75 14.5341C86.4394 15.0871 86.2879 15.7083 86.2955 16.3977C86.303 17.0871 86.4583 17.7083 86.7614 18.2614C87.072 18.8144 87.4924 19.2538 88.0227 19.5795C88.5606 19.9053 89.1742 20.0682 89.8636 20.0682C90.3788 20.0682 90.8561 19.9735 91.2955 19.7841C91.7348 19.5947 92.1174 19.3333 92.4432 19C92.7689 18.6591 93.0227 18.2652 93.2045 17.8182C93.3939 17.3712 93.4848 16.8939 93.4773 16.3864C93.4697 15.7121 93.3106 15.0985 93 14.5455C92.6894 13.9924 92.2614 13.553 91.7159 13.2273C91.178 12.8939 90.5682 12.7273 89.8864 12.7273ZM111.384 8.40909C112.656 8.40909 113.872 8.61742 115.031 9.03409C116.19 9.44318 117.224 10.0985 118.134 11C119.043 11.8939 119.759 13.072 120.281 14.5341C120.804 15.9962 121.065 17.7803 121.065 19.8864C121.073 21.8258 120.846 23.5644 120.384 25.1023C119.921 26.6326 119.259 27.9356 118.395 29.0114C117.539 30.0871 116.509 30.9091 115.304 31.4773C114.099 32.0379 112.755 32.3182 111.27 32.3182C109.634 32.3182 108.19 32.0038 106.94 31.375C105.698 30.7386 104.702 29.8826 103.952 28.8068C103.209 27.7311 102.766 26.5265 102.622 25.1932H108.156C108.33 25.9659 108.698 26.5492 109.259 26.9432C109.819 27.3295 110.49 27.5227 111.27 27.5227C112.694 27.5227 113.759 26.9053 114.463 25.6705C115.168 24.4356 115.52 22.7576 115.52 20.6364H115.384C115.058 21.3333 114.596 21.9318 113.997 22.4318C113.406 22.9318 112.721 23.3144 111.94 23.5795C111.16 23.8447 110.338 23.9773 109.474 23.9773C108.08 23.9773 106.849 23.6591 105.781 23.0227C104.721 22.3864 103.887 21.5114 103.281 20.3977C102.683 19.2841 102.38 18.0114 102.372 16.5795C102.365 14.9735 102.74 13.5568 103.497 12.3295C104.255 11.0947 105.312 10.1326 106.668 9.44318C108.024 8.74621 109.596 8.40151 111.384 8.40909ZM111.418 12.7273C110.721 12.7273 110.099 12.8902 109.554 13.2159C109.016 13.5417 108.592 13.9811 108.281 14.5341C107.971 15.0871 107.819 15.7083 107.827 16.3977C107.834 17.0871 107.99 17.7083 108.293 18.2614C108.603 18.8144 109.024 19.2538 109.554 19.5795C110.092 19.9053 110.705 20.0682 111.395 20.0682C111.91 20.0682 112.387 19.9735 112.827 19.7841C113.266 19.5947 113.649 19.3333 113.974 19C114.3 18.6591 114.554 18.2652 114.736 17.8182C114.925 17.3712 115.016 16.8939 115.009 16.3864C115.001 15.7121 114.842 15.0985 114.531 14.5455C114.221 13.9924 113.793 13.553 113.247 13.2273C112.709 12.8939 112.099 12.7273 111.418 12.7273Z" fill="white"/>
<path d="M131.737 28.5506L128.924 38.9995H128.004L130.816 28.5506H131.737ZM133.065 28.9597H134.327L137.293 36.2041H137.395L140.361 28.9597H141.622V37.687H140.633V31.0563H140.548L137.821 37.687H136.866L134.139 31.0563H134.054V37.687H133.065V28.9597ZM146.349 37.8234C145.718 37.8234 145.174 37.6842 144.717 37.4058C144.262 37.1245 143.911 36.7325 143.664 36.2296C143.42 35.7239 143.298 35.1359 143.298 34.4654C143.298 33.795 143.42 33.2041 143.664 32.6927C143.911 32.1785 144.255 31.7779 144.696 31.491C145.139 31.2012 145.656 31.0563 146.247 31.0563C146.588 31.0563 146.924 31.1131 147.257 31.2268C147.589 31.3404 147.892 31.5251 148.164 31.7808C148.437 32.0336 148.654 32.3688 148.816 32.7864C148.978 33.2041 149.059 33.7183 149.059 34.3291V34.7552H144.014V33.8859H148.036C148.036 33.5166 147.963 33.187 147.815 32.8972C147.67 32.6075 147.463 32.3788 147.193 32.2112C146.926 32.0435 146.61 31.9597 146.247 31.9597C145.846 31.9597 145.5 32.0592 145.207 32.258C144.917 32.4541 144.694 32.7097 144.538 33.0251C144.382 33.3404 144.304 33.6785 144.304 34.0393V34.6188C144.304 35.1131 144.389 35.5322 144.559 35.8759C144.732 36.2168 144.973 36.4768 145.279 36.6558C145.586 36.8319 145.943 36.92 146.349 36.92C146.613 36.92 146.852 36.883 147.065 36.8092C147.281 36.7325 147.467 36.6188 147.623 36.4683C147.779 36.3149 147.9 36.1245 147.985 35.8972L148.957 36.17C148.855 36.4995 148.683 36.7893 148.441 37.0393C148.2 37.2864 147.902 37.4796 147.546 37.6188C147.191 37.7552 146.792 37.8234 146.349 37.8234ZM153.248 37.8234C152.634 37.8234 152.106 37.6785 151.663 37.3887C151.22 37.0989 150.879 36.6998 150.64 36.1913C150.402 35.6828 150.282 35.1018 150.282 34.4484C150.282 33.7836 150.404 33.197 150.649 32.6884C150.896 32.1771 151.24 31.7779 151.68 31.491C152.123 31.2012 152.64 31.0563 153.231 31.0563C153.691 31.0563 154.106 31.1416 154.475 31.312C154.845 31.4825 155.147 31.7211 155.383 32.0279C155.619 32.3347 155.765 32.6927 155.822 33.1018H154.816C154.74 32.8035 154.569 32.5393 154.305 32.3092C154.044 32.0762 153.691 31.9597 153.248 31.9597C152.856 31.9597 152.512 32.062 152.217 32.2666C151.924 32.4683 151.696 32.7538 151.531 33.1231C151.369 33.4896 151.288 33.92 151.288 34.4143C151.288 34.92 151.367 35.3603 151.527 35.7353C151.688 36.1103 151.916 36.4015 152.208 36.6089C152.504 36.8163 152.85 36.92 153.248 36.92C153.509 36.92 153.747 36.8745 153.96 36.7836C154.173 36.6927 154.353 36.562 154.501 36.3916C154.649 36.2211 154.754 36.0166 154.816 35.7779H155.822C155.765 36.1643 155.625 36.5123 155.4 36.822C155.179 37.1288 154.884 37.3731 154.518 37.5549C154.154 37.7339 153.731 37.8234 153.248 37.8234ZM161.23 37.687V32.062H159.491C159.099 32.062 158.791 32.1529 158.566 32.3347C158.342 32.5166 158.23 32.7666 158.23 33.0847C158.23 33.3972 158.331 33.643 158.532 33.822C158.737 34.0009 159.017 34.0904 159.372 34.0904H161.485V35.0279H159.372C158.929 35.0279 158.546 34.9498 158.225 34.7935C157.904 34.6373 157.657 34.4143 157.484 34.1245C157.311 33.8319 157.224 33.4853 157.224 33.0847C157.224 32.6813 157.315 32.3347 157.497 32.045C157.679 31.7552 157.938 31.5322 158.277 31.3759C158.617 31.2197 159.022 31.1416 159.491 31.1416H162.184V37.687H161.23ZM156.866 37.687L158.724 34.4313H159.815L157.957 37.687H156.866ZM169.178 31.1416V36.7495H170.099V39.8006H169.093V37.687H164.03V31.1416H165.036V36.7495H168.172V31.1416H169.178Z" fill="white" fill-opacity="0.7"/>
</svg>
