<svg width="87" height="41" viewBox="0 0 87 41" fill="none" xmlns="http://www.w3.org/2000/svg">
<path d="M4.7176 8.76623H0.455631V7.70981H4.70147C5.06705 7.70981 5.36946 7.64933 5.6087 7.52836C5.84794 7.40471 6.02535 7.23536 6.14094 7.02032C6.25653 6.80258 6.31432 6.55259 6.31432 6.27034C6.31432 5.99078 6.25653 5.74078 6.14094 5.52036C6.02535 5.29994 5.84928 5.12656 5.61273 5.00022C5.37618 4.87119 5.0778 4.80667 4.7176 4.80667H2.95959V12H1.71769V3.74219H4.7176C5.34392 3.74219 5.86675 3.85509 6.2861 4.08089C6.70813 4.30669 7.02398 4.61044 7.23365 4.99215C7.44601 5.37386 7.55219 5.79858 7.55219 6.26631C7.55219 6.73941 7.44466 7.16547 7.22962 7.54449C7.01726 7.92083 6.70006 8.2192 6.27803 8.43963C5.85869 8.65736 5.33854 8.76623 4.7176 8.76623ZM4.77808 9.45976V10.5202H0.455631V9.45976H4.77808Z" fill="white"/>
<path d="M20.3409 32.5682C18.3106 32.5682 16.5606 32.0871 15.0909 31.125C13.6212 30.1553 12.4886 28.7652 11.6932 26.9545C10.8977 25.1364 10.5038 22.9508 10.5114 20.3977C10.5189 17.8447 10.9167 15.678 11.7045 13.8977C12.5 12.1098 13.6288 10.75 15.0909 9.81818C16.5606 8.87879 18.3106 8.40909 20.3409 8.40909C22.3712 8.40909 24.1212 8.87879 25.5909 9.81818C27.0682 10.75 28.2045 12.1098 29 13.8977C29.7955 15.6856 30.1894 17.8523 30.1818 20.3977C30.1818 22.9583 29.7841 25.1477 28.9886 26.9659C28.1932 28.7841 27.0606 30.1742 25.5909 31.1364C24.1288 32.0909 22.3788 32.5682 20.3409 32.5682ZM20.3409 27.9659C21.553 27.9659 22.5341 27.3485 23.2841 26.1136C24.0341 24.8712 24.4053 22.9659 24.3977 20.3977C24.3977 18.7159 24.2273 17.3295 23.8864 16.2386C23.5455 15.1402 23.072 14.322 22.4659 13.7841C21.8598 13.2462 21.1515 12.9773 20.3409 12.9773C19.1364 12.9773 18.1629 13.5871 17.4205 14.8068C16.678 16.0189 16.303 17.8826 16.2955 20.3977C16.2879 22.1023 16.4508 23.5152 16.7841 24.6364C17.125 25.7576 17.6023 26.5947 18.2159 27.1477C18.8295 27.6932 19.5379 27.9659 20.3409 27.9659Z" fill="white"/>
<path d="M40.7368 28.5506L37.9243 38.9995H37.0038L39.8163 28.5506H40.7368ZM44.98 28.9597V37.687H43.9232V30.0677H43.8721L41.7414 31.4825V30.4086L43.9232 28.9597H44.98ZM47.2854 35.8972V35.0279L51.1206 28.9597H51.7513V30.3063H51.3252L48.4275 34.8916V34.9597H53.5922V35.8972H47.2854ZM51.3934 37.687V35.633V35.2282V28.9597H52.399V37.687H51.3934ZM57.8824 39.562V36.7495H58.4278C58.5613 36.6103 58.6764 36.4597 58.773 36.2978C58.8696 36.1359 58.9534 35.9441 59.0244 35.7225C59.0983 35.4981 59.1608 35.2254 59.2119 34.9043C59.263 34.5805 59.3085 34.1899 59.3483 33.7325L59.5699 31.1416H63.7289V36.7495H64.7346V39.562H63.7289V37.687H58.888V39.562H57.8824ZM59.5699 36.7495H62.7233V32.0791H60.5074L60.3369 33.7325C60.2659 34.4171 60.1778 35.0151 60.0727 35.5265C59.9676 36.0379 59.8 36.4455 59.5699 36.7495ZM70.4502 33.9541V34.8916H66.8365V33.9541H70.4502ZM67.0752 31.1416V37.687H66.0695V31.1416H67.0752ZM71.2172 31.1416V37.687H70.2115V31.1416H71.2172ZM75.7982 37.8234C75.1675 37.8234 74.6235 37.6842 74.1661 37.4058C73.7115 37.1245 73.3607 36.7325 73.1135 36.2296C72.8692 35.7239 72.7471 35.1359 72.7471 34.4654C72.7471 33.795 72.8692 33.2041 73.1135 32.6927C73.3607 32.1785 73.7044 31.7779 74.1448 31.491C74.588 31.2012 75.105 31.0563 75.6959 31.0563C76.0368 31.0563 76.3735 31.1131 76.7059 31.2268C77.0383 31.3404 77.3408 31.5251 77.6135 31.7808C77.8863 32.0336 78.1036 32.3688 78.2655 32.7864C78.4275 33.2041 78.5084 33.7183 78.5084 34.3291V34.7552H73.463V33.8859H77.4857C77.4857 33.5166 77.4118 33.187 77.2641 32.8972C77.1192 32.6075 76.9118 32.3788 76.6419 32.2112C76.3749 32.0435 76.0596 31.9597 75.6959 31.9597C75.2954 31.9597 74.9488 32.0592 74.6562 32.258C74.3664 32.4541 74.1434 32.7097 73.9871 33.0251C73.8309 33.3404 73.7527 33.6785 73.7527 34.0393V34.6188C73.7527 35.1131 73.838 35.5322 74.0084 35.8759C74.1817 36.2168 74.4218 36.4768 74.7286 36.6558C75.0354 36.8319 75.3919 36.92 75.7982 36.92C76.0624 36.92 76.301 36.883 76.5141 36.8092C76.73 36.7325 76.9161 36.6188 77.0723 36.4683C77.2286 36.3149 77.3493 36.1245 77.4346 35.8972L78.4062 36.17C78.3039 36.4995 78.132 36.7893 77.8905 37.0393C77.649 37.2864 77.3508 37.4796 76.9956 37.6188C76.6405 37.7552 76.2414 37.8234 75.7982 37.8234ZM81.0439 36.2041L84.1973 31.1416H85.3564V37.687H84.3508V32.6245L81.2144 37.687H80.0383V31.1416H81.0439V36.2041ZM83.5326 28.9597H84.4701C84.4701 29.42 84.311 29.7964 83.9928 30.089C83.6746 30.3816 83.2428 30.5279 82.6973 30.5279C82.1604 30.5279 81.7329 30.3816 81.4147 30.089C81.0993 29.7964 80.9417 29.42 80.9417 28.9597H81.8792C81.8792 29.1813 81.9402 29.3759 82.0624 29.5435C82.1874 29.7112 82.399 29.795 82.6973 29.795C82.9956 29.795 83.2087 29.7112 83.3365 29.5435C83.4672 29.3759 83.5326 29.1813 83.5326 28.9597Z" fill="white" fill-opacity="0.7"/>
</svg>
