<svg width="173" height="41" viewBox="0 0 173 41" fill="none" xmlns="http://www.w3.org/2000/svg">
<path d="M4.7176 8.76623H0.455631V7.70981H4.70147C5.06705 7.70981 5.36946 7.64933 5.6087 7.52836C5.84794 7.40471 6.02535 7.23536 6.14094 7.02032C6.25653 6.80258 6.31432 6.55259 6.31432 6.27034C6.31432 5.99078 6.25653 5.74078 6.14094 5.52036C6.02535 5.29994 5.84928 5.12656 5.61273 5.00022C5.37618 4.87119 5.0778 4.80667 4.7176 4.80667H2.95959V12H1.71769V3.74219H4.7176C5.34392 3.74219 5.86675 3.85509 6.2861 4.08089C6.70813 4.30669 7.02398 4.61044 7.23365 4.99215C7.44601 5.37386 7.55219 5.79858 7.55219 6.26631C7.55219 6.73941 7.44466 7.16547 7.22962 7.54449C7.01726 7.92083 6.70006 8.2192 6.27803 8.43963C5.85869 8.65736 5.33854 8.76623 4.7176 8.76623ZM4.77808 9.45976V10.5202H0.455631V9.45976H4.77808Z" fill="white"/>
<path d="M10.4318 28.1364V23.75L19.9659 8.72727H23.8636V14.6818H21.6023L16.0227 23.5227V23.7045H29.8295V28.1364H10.4318ZM21.6705 32V26.7955L21.7841 24.875V8.72727H27.0455V32H21.6705ZM32.4943 28.1364V23.75L42.0284 8.72727H45.9261V14.6818H43.6648L38.0852 23.5227V23.7045H51.892V28.1364H32.4943ZM43.733 32V26.7955L43.8466 24.875V8.72727H49.108V32H43.733ZM70.4773 8.40909C71.75 8.40909 72.9659 8.61742 74.125 9.03409C75.2841 9.44318 76.3182 10.0985 77.2273 11C78.1364 11.8939 78.8523 13.072 79.375 14.5341C79.8977 15.9962 80.1591 17.7803 80.1591 19.8864C80.1667 21.8258 79.9394 23.5644 79.4773 25.1023C79.0152 26.6326 78.3523 27.9356 77.4886 29.0114C76.6326 30.0871 75.6023 30.9091 74.3977 31.4773C73.1932 32.0379 71.8485 32.3182 70.3636 32.3182C68.7273 32.3182 67.2841 32.0038 66.0341 31.375C64.7917 30.7386 63.7955 29.8826 63.0455 28.8068C62.303 27.7311 61.8598 26.5265 61.7159 25.1932H67.25C67.4242 25.9659 67.7917 26.5492 68.3523 26.9432C68.9129 27.3295 69.5833 27.5227 70.3636 27.5227C71.7879 27.5227 72.8523 26.9053 73.5568 25.6705C74.2614 24.4356 74.6136 22.7576 74.6136 20.6364H74.4773C74.1515 21.3333 73.6894 21.9318 73.0909 22.4318C72.5 22.9318 71.8144 23.3144 71.0341 23.5795C70.2538 23.8447 69.4318 23.9773 68.5682 23.9773C67.1742 23.9773 65.9432 23.6591 64.875 23.0227C63.8144 22.3864 62.9811 21.5114 62.375 20.3977C61.7765 19.2841 61.4735 18.0114 61.4659 16.5795C61.4583 14.9735 61.8333 13.5568 62.5909 12.3295C63.3485 11.0947 64.4053 10.1326 65.7614 9.44318C67.1174 8.74621 68.6894 8.40151 70.4773 8.40909ZM70.5114 12.7273C69.8144 12.7273 69.1932 12.8902 68.6477 13.2159C68.1098 13.5417 67.6856 13.9811 67.375 14.5341C67.0644 15.0871 66.9129 15.7083 66.9205 16.3977C66.928 17.0871 67.0833 17.7083 67.3864 18.2614C67.697 18.8144 68.1174 19.2538 68.6477 19.5795C69.1856 19.9053 69.7992 20.0682 70.4886 20.0682C71.0038 20.0682 71.4811 19.9735 71.9205 19.7841C72.3598 19.5947 72.7424 19.3333 73.0682 19C73.3939 18.6591 73.6477 18.2652 73.8295 17.8182C74.0189 17.3712 74.1098 16.8939 74.1023 16.3864C74.0947 15.7121 73.9356 15.0985 73.625 14.5455C73.3144 13.9924 72.8864 13.553 72.3409 13.2273C71.803 12.8939 71.1932 12.7273 70.5114 12.7273ZM92.0085 8.40909C93.2813 8.40909 94.4972 8.61742 95.6562 9.03409C96.8153 9.44318 97.8494 10.0985 98.7585 11C99.6676 11.8939 100.384 13.072 100.906 14.5341C101.429 15.9962 101.69 17.7803 101.69 19.8864C101.698 21.8258 101.471 23.5644 101.009 25.1023C100.546 26.6326 99.8835 27.9356 99.0199 29.0114C98.1638 30.0871 97.1335 30.9091 95.929 31.4773C94.7244 32.0379 93.3797 32.3182 91.8949 32.3182C90.2585 32.3182 88.8153 32.0038 87.5653 31.375C86.3229 30.7386 85.3267 29.8826 84.5767 28.8068C83.8343 27.7311 83.3911 26.5265 83.2472 25.1932H88.7812C88.9555 25.9659 89.3229 26.5492 89.8835 26.9432C90.4441 27.3295 91.1146 27.5227 91.8949 27.5227C93.3191 27.5227 94.3835 26.9053 95.0881 25.6705C95.7926 24.4356 96.1449 22.7576 96.1449 20.6364H96.0085C95.6828 21.3333 95.2206 21.9318 94.6222 22.4318C94.0313 22.9318 93.3456 23.3144 92.5653 23.5795C91.785 23.8447 90.9631 23.9773 90.0994 23.9773C88.7055 23.9773 87.4744 23.6591 86.4062 23.0227C85.3456 22.3864 84.5123 21.5114 83.9062 20.3977C83.3078 19.2841 83.0047 18.0114 82.9972 16.5795C82.9896 14.9735 83.3646 13.5568 84.1222 12.3295C84.8797 11.0947 85.9366 10.1326 87.2926 9.44318C88.6487 8.74621 90.2206 8.40151 92.0085 8.40909ZM92.0426 12.7273C91.3456 12.7273 90.7244 12.8902 90.179 13.2159C89.6411 13.5417 89.2169 13.9811 88.9062 14.5341C88.5956 15.0871 88.4441 15.7083 88.4517 16.3977C88.4593 17.0871 88.6146 17.7083 88.9176 18.2614C89.2282 18.8144 89.6487 19.2538 90.179 19.5795C90.7169 19.9053 91.3305 20.0682 92.0199 20.0682C92.535 20.0682 93.0123 19.9735 93.4517 19.7841C93.8911 19.5947 94.2737 19.3333 94.5994 19C94.9252 18.6591 95.179 18.2652 95.3608 17.8182C95.5502 17.3712 95.6411 16.8939 95.6335 16.3864C95.6259 15.7121 95.4669 15.0985 95.1562 14.5455C94.8456 13.9924 94.4176 13.553 93.8722 13.2273C93.3343 12.8939 92.7244 12.7273 92.0426 12.7273ZM113.54 8.40909C114.813 8.40909 116.028 8.61742 117.188 9.03409C118.347 9.44318 119.381 10.0985 120.29 11C121.199 11.8939 121.915 13.072 122.438 14.5341C122.96 15.9962 123.222 17.7803 123.222 19.8864C123.229 21.8258 123.002 23.5644 122.54 25.1023C122.078 26.6326 121.415 27.9356 120.551 29.0114C119.695 30.0871 118.665 30.9091 117.46 31.4773C116.256 32.0379 114.911 32.3182 113.426 32.3182C111.79 32.3182 110.347 32.0038 109.097 31.375C107.854 30.7386 106.858 29.8826 106.108 28.8068C105.366 27.7311 104.922 26.5265 104.778 25.1932H110.312C110.487 25.9659 110.854 26.5492 111.415 26.9432C111.975 27.3295 112.646 27.5227 113.426 27.5227C114.85 27.5227 115.915 26.9053 116.619 25.6705C117.324 24.4356 117.676 22.7576 117.676 20.6364H117.54C117.214 21.3333 116.752 21.9318 116.153 22.4318C115.563 22.9318 114.877 23.3144 114.097 23.5795C113.316 23.8447 112.494 23.9773 111.631 23.9773C110.237 23.9773 109.006 23.6591 107.938 23.0227C106.877 22.3864 106.044 21.5114 105.438 20.3977C104.839 19.2841 104.536 18.0114 104.528 16.5795C104.521 14.9735 104.896 13.5568 105.653 12.3295C106.411 11.0947 107.468 10.1326 108.824 9.44318C110.18 8.74621 111.752 8.40151 113.54 8.40909ZM113.574 12.7273C112.877 12.7273 112.256 12.8902 111.71 13.2159C111.172 13.5417 110.748 13.9811 110.438 14.5341C110.127 15.0871 109.975 15.7083 109.983 16.3977C109.991 17.0871 110.146 17.7083 110.449 18.2614C110.759 18.8144 111.18 19.2538 111.71 19.5795C112.248 19.9053 112.862 20.0682 113.551 20.0682C114.066 20.0682 114.544 19.9735 114.983 19.7841C115.422 19.5947 115.805 19.3333 116.131 19C116.456 18.6591 116.71 18.2652 116.892 17.8182C117.081 17.3712 117.172 16.8939 117.165 16.3864C117.157 15.7121 116.998 15.0985 116.688 14.5455C116.377 13.9924 115.949 13.553 115.403 13.2273C114.866 12.8939 114.256 12.7273 113.574 12.7273Z" fill="white"/>
<path d="M133.737 28.5506L130.924 38.9995H130.004L132.816 28.5506H133.737ZM135.065 28.9597H136.327L139.293 36.2041H139.395L142.361 28.9597H143.622V37.687H142.633V31.0563H142.548L139.821 37.687H138.866L136.139 31.0563H136.054V37.687H135.065V28.9597ZM148.349 37.8234C147.718 37.8234 147.174 37.6842 146.717 37.4058C146.262 37.1245 145.911 36.7325 145.664 36.2296C145.42 35.7239 145.298 35.1359 145.298 34.4654C145.298 33.795 145.42 33.2041 145.664 32.6927C145.911 32.1785 146.255 31.7779 146.696 31.491C147.139 31.2012 147.656 31.0563 148.247 31.0563C148.588 31.0563 148.924 31.1131 149.257 31.2268C149.589 31.3404 149.892 31.5251 150.164 31.7808C150.437 32.0336 150.654 32.3688 150.816 32.7864C150.978 33.2041 151.059 33.7183 151.059 34.3291V34.7552H146.014V33.8859H150.036C150.036 33.5166 149.963 33.187 149.815 32.8972C149.67 32.6075 149.463 32.3788 149.193 32.2112C148.926 32.0435 148.61 31.9597 148.247 31.9597C147.846 31.9597 147.5 32.0592 147.207 32.258C146.917 32.4541 146.694 32.7097 146.538 33.0251C146.382 33.3404 146.304 33.6785 146.304 34.0393V34.6188C146.304 35.1131 146.389 35.5322 146.559 35.8759C146.732 36.2168 146.973 36.4768 147.279 36.6558C147.586 36.8319 147.943 36.92 148.349 36.92C148.613 36.92 148.852 36.883 149.065 36.8092C149.281 36.7325 149.467 36.6188 149.623 36.4683C149.779 36.3149 149.9 36.1245 149.985 35.8972L150.957 36.17C150.855 36.4995 150.683 36.7893 150.441 37.0393C150.2 37.2864 149.902 37.4796 149.546 37.6188C149.191 37.7552 148.792 37.8234 148.349 37.8234ZM155.248 37.8234C154.634 37.8234 154.106 37.6785 153.663 37.3887C153.22 37.0989 152.879 36.6998 152.64 36.1913C152.402 35.6828 152.282 35.1018 152.282 34.4484C152.282 33.7836 152.404 33.197 152.649 32.6884C152.896 32.1771 153.24 31.7779 153.68 31.491C154.123 31.2012 154.64 31.0563 155.231 31.0563C155.691 31.0563 156.106 31.1416 156.475 31.312C156.845 31.4825 157.147 31.7211 157.383 32.0279C157.619 32.3347 157.765 32.6927 157.822 33.1018H156.816C156.74 32.8035 156.569 32.5393 156.305 32.3092C156.044 32.0762 155.691 31.9597 155.248 31.9597C154.856 31.9597 154.512 32.062 154.217 32.2666C153.924 32.4683 153.696 32.7538 153.531 33.1231C153.369 33.4896 153.288 33.92 153.288 34.4143C153.288 34.92 153.367 35.3603 153.527 35.7353C153.688 36.1103 153.916 36.4015 154.208 36.6089C154.504 36.8163 154.85 36.92 155.248 36.92C155.509 36.92 155.747 36.8745 155.96 36.7836C156.173 36.6927 156.353 36.562 156.501 36.3916C156.649 36.2211 156.754 36.0166 156.816 35.7779H157.822C157.765 36.1643 157.625 36.5123 157.4 36.822C157.179 37.1288 156.884 37.3731 156.518 37.5549C156.154 37.7339 155.731 37.8234 155.248 37.8234ZM163.23 37.687V32.062H161.491C161.099 32.062 160.791 32.1529 160.566 32.3347C160.342 32.5166 160.23 32.7666 160.23 33.0847C160.23 33.3972 160.331 33.643 160.532 33.822C160.737 34.0009 161.017 34.0904 161.372 34.0904H163.485V35.0279H161.372C160.929 35.0279 160.546 34.9498 160.225 34.7935C159.904 34.6373 159.657 34.4143 159.484 34.1245C159.311 33.8319 159.224 33.4853 159.224 33.0847C159.224 32.6813 159.315 32.3347 159.497 32.045C159.679 31.7552 159.938 31.5322 160.277 31.3759C160.617 31.2197 161.022 31.1416 161.491 31.1416H164.184V37.687H163.23ZM158.866 37.687L160.724 34.4313H161.815L159.957 37.687H158.866ZM171.178 31.1416V36.7495H172.099V39.8006H171.093V37.687H166.03V31.1416H167.036V36.7495H170.172V31.1416H171.178Z" fill="white" fill-opacity="0.7"/>
</svg>
