<svg width="58" height="15" viewBox="0 0 58 15" fill="none" xmlns="http://www.w3.org/2000/svg">
<rect x="0.666504" width="57" height="15" rx="7.5" fill="#FEE7E1"/>
<path d="M13.371 10.5V4.68182H14.0756V7.27273H17.1779V4.68182H17.8824V10.5H17.1779V7.89773H14.0756V10.5H13.371ZM19.5316 10.5H18.7929L20.9293 4.68182H21.6566L23.7929 10.5H23.0543L21.3157 5.60227H21.2702L19.5316 10.5ZM19.8043 8.22727H22.7816V8.85227H19.8043V8.22727ZM24.756 4.68182H25.4605V6.625C25.4605 6.91288 25.5107 7.1392 25.6111 7.30398C25.7115 7.46686 25.8535 7.58239 26.0372 7.65057C26.221 7.71686 26.4378 7.75 26.6878 7.75C26.845 7.75 26.9975 7.74432 27.1452 7.73295C27.2929 7.7197 27.4369 7.7017 27.577 7.67898C27.7191 7.65625 27.8573 7.62879 27.9918 7.59659C28.1282 7.56439 28.2617 7.52841 28.3924 7.48864V8.125C28.2655 8.16477 28.1395 8.20076 28.0145 8.23295C27.8914 8.26515 27.7626 8.29261 27.6282 8.31534C27.4956 8.33807 27.3526 8.35606 27.1992 8.36932C27.0458 8.38068 26.8753 8.38636 26.6878 8.38636C26.2863 8.38636 25.9407 8.3286 25.6509 8.21307C25.363 8.09754 25.1414 7.91098 24.9861 7.65341C24.8327 7.39583 24.756 7.05303 24.756 6.625V4.68182ZM28.3014 4.68182H29.006V10.5H28.3014V4.68182ZM30.6566 10.5H29.9179L32.0543 4.68182H32.7816L34.9179 10.5H34.1793L32.4407 5.60227H32.3952L30.6566 10.5ZM30.9293 8.22727H33.9066V8.85227H30.9293V8.22727ZM34.8263 5.30682V4.68182H39.1899V5.30682H37.3604V10.5H36.6559V5.30682H34.8263ZM40.8 7.125H42.4591C42.8758 7.125 43.2271 7.19318 43.5131 7.32955C43.801 7.46591 44.0188 7.65814 44.1665 7.90625C44.3161 8.15436 44.3909 8.44697 44.3909 8.78409C44.3909 9.12121 44.3161 9.41856 44.1665 9.67614C44.0188 9.93371 43.801 10.1354 43.5131 10.2812C43.2271 10.4271 42.8758 10.5 42.4591 10.5H40.2773V4.68182H40.9818V9.88636H42.4591C42.7243 9.88636 42.9487 9.83333 43.1324 9.72727C43.318 9.61932 43.4582 9.48106 43.5529 9.3125C43.6495 9.14205 43.6978 8.96212 43.6978 8.77273C43.6978 8.49432 43.5907 8.25473 43.3767 8.05398C43.1627 7.85133 42.8568 7.75 42.4591 7.75H40.8V7.125Z" fill="#F19892"/>
</svg>
