<svg width="83" height="15" viewBox="0 0 83 15" fill="none" xmlns="http://www.w3.org/2000/svg">
<rect width="83" height="15" rx="7.5" fill="#FEE7E1"/>
<path d="M17.0568 4.68182V10.5H16.3523V5.30682H13.4205V10.5H12.7159V4.68182H17.0568ZM18.478 10.5V4.68182H20.4439C20.9003 4.68182 21.2734 4.7642 21.5632 4.92898C21.8549 5.09186 22.0708 5.3125 22.2109 5.59091C22.3511 5.86932 22.4212 6.17992 22.4212 6.52273C22.4212 6.86553 22.3511 7.17708 22.2109 7.45739C22.0727 7.73769 21.8587 7.96117 21.5689 8.12784C21.2791 8.29261 20.9079 8.375 20.4553 8.375H19.0462V7.75H20.4325C20.745 7.75 20.996 7.69602 21.1854 7.58807C21.3748 7.48011 21.5121 7.33428 21.5973 7.15057C21.6844 6.96496 21.728 6.75568 21.728 6.52273C21.728 6.28977 21.6844 6.08144 21.5973 5.89773C21.5121 5.71402 21.3738 5.57008 21.1825 5.46591C20.9912 5.35985 20.7375 5.30682 20.4212 5.30682H19.1825V10.5H18.478ZM28.4652 7.59091C28.4652 8.20455 28.3544 8.73485 28.1328 9.18182C27.9112 9.62879 27.6072 9.97348 27.2209 10.2159C26.8345 10.4583 26.3932 10.5795 25.897 10.5795C25.4008 10.5795 24.9595 10.4583 24.5732 10.2159C24.1868 9.97348 23.8828 9.62879 23.6612 9.18182C23.4396 8.73485 23.3288 8.20455 23.3288 7.59091C23.3288 6.97727 23.4396 6.44697 23.6612 6C23.8828 5.55303 24.1868 5.20833 24.5732 4.96591C24.9595 4.72348 25.4008 4.60227 25.897 4.60227C26.3932 4.60227 26.8345 4.72348 27.2209 4.96591C27.6072 5.20833 27.9112 5.55303 28.1328 6C28.3544 6.44697 28.4652 6.97727 28.4652 7.59091ZM27.7834 7.59091C27.7834 7.08712 27.6991 6.66193 27.5305 6.31534C27.3639 5.96875 27.1375 5.70644 26.8516 5.52841C26.5675 5.35038 26.2493 5.26136 25.897 5.26136C25.5447 5.26136 25.2256 5.35038 24.9396 5.52841C24.6555 5.70644 24.4292 5.96875 24.2607 6.31534C24.094 6.66193 24.0107 7.08712 24.0107 7.59091C24.0107 8.0947 24.094 8.51989 24.2607 8.86648C24.4292 9.21307 24.6555 9.47538 24.9396 9.65341C25.2256 9.83144 25.5447 9.92045 25.897 9.92045C26.2493 9.92045 26.5675 9.83144 26.8516 9.65341C27.1375 9.47538 27.3639 9.21307 27.5305 8.86648C27.6991 8.51989 27.7834 8.0947 27.7834 7.59091ZM29.1499 11.9091V9.875H29.5249C29.6536 9.75758 29.7749 9.59186 29.8885 9.37784C30.004 9.16193 30.1016 8.87405 30.1811 8.5142C30.2625 8.15246 30.3165 7.69318 30.343 7.13636L30.468 4.68182H33.9226V9.875H34.593V11.8977H33.9226V10.5H29.8203V11.9091H29.1499ZM30.3658 9.875H33.2521V5.30682H31.1044L31.0135 7.13636C30.9908 7.56061 30.951 7.94508 30.8942 8.28977C30.8374 8.63258 30.7644 8.93655 30.6754 9.2017C30.5864 9.46496 30.4832 9.68939 30.3658 9.875ZM40.5668 7.59091C40.5668 8.20455 40.456 8.73485 40.2344 9.18182C40.0128 9.62879 39.7088 9.97348 39.3224 10.2159C38.9361 10.4583 38.4948 10.5795 37.9986 10.5795C37.5024 10.5795 37.0611 10.4583 36.6747 10.2159C36.2884 9.97348 35.9844 9.62879 35.7628 9.18182C35.5412 8.73485 35.4304 8.20455 35.4304 7.59091C35.4304 6.97727 35.5412 6.44697 35.7628 6C35.9844 5.55303 36.2884 5.20833 36.6747 4.96591C37.0611 4.72348 37.5024 4.60227 37.9986 4.60227C38.4948 4.60227 38.9361 4.72348 39.3224 4.96591C39.7088 5.20833 40.0128 5.55303 40.2344 6C40.456 6.44697 40.5668 6.97727 40.5668 7.59091ZM39.8849 7.59091C39.8849 7.08712 39.8007 6.66193 39.6321 6.31534C39.4654 5.96875 39.2391 5.70644 38.9531 5.52841C38.669 5.35038 38.3509 5.26136 37.9986 5.26136C37.6463 5.26136 37.3272 5.35038 37.0412 5.52841C36.7571 5.70644 36.5308 5.96875 36.3622 6.31534C36.1955 6.66193 36.1122 7.08712 36.1122 7.59091C36.1122 8.0947 36.1955 8.51989 36.3622 8.86648C36.5308 9.21307 36.7571 9.47538 37.0412 9.65341C37.3272 9.83144 37.6463 9.92045 37.9986 9.92045C38.3509 9.92045 38.669 9.83144 38.9531 9.65341C39.2391 9.47538 39.4654 9.21307 39.6321 8.86648C39.8007 8.51989 39.8849 8.0947 39.8849 7.59091ZM41.2514 10.5V9.85227H41.4219C41.6643 9.85227 41.8527 9.77462 41.9872 9.61932C42.1217 9.46402 42.2183 9.21307 42.277 8.86648C42.3376 8.51989 42.3783 8.06061 42.3991 7.48864L42.5014 4.68182H46.0469V10.5H45.3423V5.30682H43.1719L43.081 7.625C43.0582 8.23485 43.0024 8.75379 42.9134 9.18182C42.8243 9.60985 42.6681 9.93655 42.4446 10.1619C42.2211 10.3873 41.8954 10.5 41.4673 10.5H41.2514ZM50.8977 4.68182V10.5H50.1932V4.68182H50.8977ZM46.9659 10.5L48.8523 7.46591L47.125 4.68182H47.9773L49.4886 7.26136H51.6136L53.125 4.68182H53.9773L52.2386 7.47727L54.125 10.5H53.3182L51.7386 7.92045H49.3523L47.7614 10.5H46.9659ZM55.0483 4.68182H55.7415V9.26136H55.7983L58.9801 4.68182H59.6619V10.5H58.9574V5.93182H58.9006L55.7301 10.5H55.0483V4.68182ZM60.7536 5.30682V4.68182H65.1172V5.30682H63.2876V10.5H62.5831V5.30682H60.7536ZM66.7273 7.125H68.3864C68.803 7.125 69.1544 7.19318 69.4403 7.32955C69.7282 7.46591 69.946 7.65814 70.0938 7.90625C70.2434 8.15436 70.3182 8.44697 70.3182 8.78409C70.3182 9.12121 70.2434 9.41856 70.0938 9.67614C69.946 9.93371 69.7282 10.1354 69.4403 10.2812C69.1544 10.4271 68.803 10.5 68.3864 10.5H66.2045V4.68182H66.9091V9.88636H68.3864C68.6515 9.88636 68.8759 9.83333 69.0597 9.72727C69.2453 9.61932 69.3854 9.48106 69.4801 9.3125C69.5767 9.14205 69.625 8.96212 69.625 8.77273C69.625 8.49432 69.518 8.25473 69.304 8.05398C69.09 7.85133 68.7841 7.75 68.3864 7.75H66.7273V7.125Z" fill="#F19892"/>
</svg>
